<?xml version="1.0" encoding="UTF-8" standalone="no"?>
<svg
   xmlns:dc="http://purl.org/dc/elements/1.1/"
   xmlns:cc="http://creativecommons.org/ns#"
   xmlns:rdf="http://www.w3.org/1999/02/22-rdf-syntax-ns#"
   xmlns:svg="http://www.w3.org/2000/svg"
   xmlns="http://www.w3.org/2000/svg"
   xmlns:sodipodi="http://sodipodi.sourceforge.net/DTD/sodipodi-0.dtd"
   xmlns:inkscape="http://www.inkscape.org/namespaces/inkscape"
   version="1.1"
   width="3840"
   height="2160"
   id="svg945"
   sodipodi:docname="logo.svg"
   inkscape:version="1.0.2 (e86c870879, 2021-01-15)">
  <metadata
     id="metadata951">
    <rdf:RDF>
      <cc:Work
         rdf:about="">
        <dc:format>image/svg+xml</dc:format>
        <dc:type
           rdf:resource="http://purl.org/dc/dcmitype/StillImage" />
        <dc:title></dc:title>
      </cc:Work>
    </rdf:RDF>
  </metadata>
  <defs
     id="defs949">
    <marker
       style="overflow:visible"
       id="Arrow1Lstart"
       refX="0.0"
       refY="0.0"
       orient="auto"
       inkscape:stockid="Arrow1Lstart"
       inkscape:isstock="true">
      <path
         transform="scale(0.8) translate(12.5,0)"
         style="fill-rule:evenodd;stroke:#000000;stroke-width:1pt;stroke-opacity:1;fill:#680000;fill-opacity:1"
         d="M 0.0,0.0 L 5.0,-5.0 L -12.5,0.0 L 5.0,5.0 L 0.0,0.0 z "
         id="path1660" />
    </marker>
    <filter
       inkscape:collect="always"
       style="color-interpolation-filters:sRGB"
       id="filter1023"
       x="-0.0011698857"
       width="1.0023398"
       y="-3.9703206e-05"
       height="1.0000794">
      <feGaussianBlur
         inkscape:collect="always"
         stdDeviation="0.034003215"
         id="feGaussianBlur1025" />
    </filter>
    <filter
       inkscape:collect="always"
       style="color-interpolation-filters:sRGB"
       id="filter1033"
       x="-2.1421644e-05"
       width="1.0000428"
       y="-2.702813e-06"
       height="1.0000054">
      <feGaussianBlur
         inkscape:collect="always"
         stdDeviation="0.00067871801"
         id="feGaussianBlur1035" />
    </filter>
    <filter
       inkscape:collect="always"
       style="color-interpolation-filters:sRGB"
       id="filter1037"
       x="-9.1700351e-06"
       width="1.0000183"
       y="-1.3134677e-05"
       height="1.0000263">
      <feGaussianBlur
         inkscape:collect="always"
         stdDeviation="0.011248997"
         id="feGaussianBlur1039" />
    </filter>
    <filter
       inkscape:collect="always"
       style="color-interpolation-filters:sRGB"
       id="filter1318"
       x="-0.044693245"
       width="1.0893865"
       y="-5.0641403e-05"
       height="1.0001013">
      <feGaussianBlur
         inkscape:collect="always"
         stdDeviation="0.04337107"
         id="feGaussianBlur1320" />
    </filter>
    <filter
       inkscape:collect="always"
       style="color-interpolation-filters:sRGB"
       id="filter1322"
       x="-4.0560845e-05"
       width="1.0000811"
       y="-8.0876127e-05"
       height="1.0001618">
      <feGaussianBlur
         inkscape:collect="always"
         stdDeviation="0.04337107"
         id="feGaussianBlur1324" />
    </filter>
    <filter
       inkscape:collect="always"
       style="color-interpolation-filters:sRGB"
       id="filter1326"
       x="-3.9401947e-05"
       width="1.0000788"
       y="-0.0002666507"
       height="1.0005333">
      <feGaussianBlur
         inkscape:collect="always"
         stdDeviation="0.04337107"
         id="feGaussianBlur1328" />
    </filter>
    <filter
       inkscape:collect="always"
       style="color-interpolation-filters:sRGB"
       id="filter1330"
       x="-3.4563923e-05"
       width="1.0000691"
       y="-5.0641403e-05"
       height="1.0001013">
      <feGaussianBlur
         inkscape:collect="always"
         stdDeviation="0.04337107"
         id="feGaussianBlur1332" />
    </filter>
    <filter
       inkscape:collect="always"
       style="color-interpolation-filters:sRGB"
       id="filter1334"
       x="-0.0013688743"
       width="1.0027377"
       y="-0.00017271369"
       height="1.0003454">
      <feGaussianBlur
         inkscape:collect="always"
         stdDeviation="0.04337107"
         id="feGaussianBlur1336" />
    </filter>
    <filter
       inkscape:collect="always"
       style="color-interpolation-filters:sRGB"
       id="filter1338"
       x="-3.9411451e-05"
       width="1.0000788"
       y="-7.6843823e-05"
       height="1.0001537">
      <feGaussianBlur
         inkscape:collect="always"
         stdDeviation="0.04337107"
         id="feGaussianBlur1340" />
    </filter>
    <filter
       inkscape:collect="always"
       style="color-interpolation-filters:sRGB"
       id="filter1984"
       x="-0.0066031281"
       width="1.0132063"
       y="-0.00083313029"
       height="1.0016663">
      <feGaussianBlur
         inkscape:collect="always"
         stdDeviation="0.20921186"
         id="feGaussianBlur1986" />
    </filter>
    <filter
       inkscape:collect="always"
       style="color-interpolation-filters:sRGB"
       id="filter1988"
       x="-0.000195656"
       width="1.0003913"
       y="-0.00039012745"
       height="1.0007803">
      <feGaussianBlur
         inkscape:collect="always"
         stdDeviation="0.20921186"
         id="feGaussianBlur1990" />
    </filter>
    <filter
       inkscape:collect="always"
       style="color-interpolation-filters:sRGB"
       id="filter1992"
       x="-0.00019006574"
       width="1.0003801"
       y="-0.00037067656"
       height="1.0007414">
      <feGaussianBlur
         inkscape:collect="always"
         stdDeviation="0.20921186"
         id="feGaussianBlur1994" />
    </filter>
    <filter
       inkscape:collect="always"
       style="color-interpolation-filters:sRGB"
       id="filter1996"
       x="-0.0071979652"
       width="1.0143959"
       y="-0.00024428224"
       height="1.0004886">
      <feGaussianBlur
         inkscape:collect="always"
         stdDeviation="0.20921186"
         id="feGaussianBlur1998" />
    </filter>
    <filter
       inkscape:collect="always"
       style="color-interpolation-filters:sRGB"
       id="filter2000"
       x="-0.00017054677"
       width="1.0003411"
       y="-0.00024428224"
       height="1.0004886">
      <feGaussianBlur
         inkscape:collect="always"
         stdDeviation="0.20921186"
         id="feGaussianBlur2002" />
    </filter>
    <filter
       inkscape:collect="always"
       style="color-interpolation-filters:sRGB"
       id="filter2004"
       x="-0.0028398675"
       width="1.0056797"
       y="-0.0011319763"
       height="1.002264">
      <feGaussianBlur
         inkscape:collect="always"
         stdDeviation="0.20921186"
         id="feGaussianBlur2006" />
    </filter>
    <filter
       inkscape:collect="always"
       style="color-interpolation-filters:sRGB"
       id="filter2008"
       x="-0.0014608789"
       width="1.0029218"
       y="-0.00080465455"
       height="1.0016093">
      <feGaussianBlur
         inkscape:collect="always"
         stdDeviation="0.20921186"
         id="feGaussianBlur2010" />
    </filter>
    <filter
       inkscape:collect="always"
       style="color-interpolation-filters:sRGB"
       id="filter2012"
       x="-0.0020260201"
       width="1.004052"
       y="-0.0010249977"
       height="1.00205">
      <feGaussianBlur
         inkscape:collect="always"
         stdDeviation="0.20921186"
         id="feGaussianBlur2014" />
    </filter>
    <filter
       inkscape:collect="always"
       style="color-interpolation-filters:sRGB"
       id="filter2016"
       x="-0.0023632637"
       width="1.0047265"
       y="-0.00096060543"
       height="1.0019212">
      <feGaussianBlur
         inkscape:collect="always"
         stdDeviation="0.20921186"
         id="feGaussianBlur2018" />
    </filter>
    <filter
       inkscape:collect="always"
       style="color-interpolation-filters:sRGB"
       id="filter2020"
       x="-0.0099052783"
       width="1.0198106"
       y="-0.00089114173"
       height="1.0017823">
      <feGaussianBlur
         inkscape:collect="always"
         stdDeviation="0.20921186"
         id="feGaussianBlur2022" />
    </filter>
    <filter
       inkscape:collect="always"
       style="color-interpolation-filters:sRGB"
       id="filter2024"
       x="-0.0011000729"
       width="1.0022001"
       y="-0.00068185591"
       height="1.0013637">
      <feGaussianBlur
         inkscape:collect="always"
         stdDeviation="0.20921186"
         id="feGaussianBlur2026" />
    </filter>
    <filter
       inkscape:collect="always"
       style="color-interpolation-filters:sRGB"
       id="filter2028"
       x="-0.00068561551"
       width="1.0013712"
       y="-0.0005855144"
       height="1.001171">
      <feGaussianBlur
         inkscape:collect="always"
         stdDeviation="0.20921186"
         id="feGaussianBlur2030" />
    </filter>
    <filter
       inkscape:collect="always"
       style="color-interpolation-filters:sRGB"
       id="filter2096"
       x="-0.00041214159"
       width="1.0008243"
       y="-0.00032217418"
       height="1.0006443">
      <feGaussianBlur
         inkscape:collect="always"
         stdDeviation="0.039655748"
         id="feGaussianBlur2098" />
    </filter>
    <filter
       inkscape:collect="always"
       style="color-interpolation-filters:sRGB"
       id="filter2100"
       x="-0.0012120499"
       width="1.0024241"
       y="-0.00055333602"
       height="1.0011067">
      <feGaussianBlur
         inkscape:collect="always"
         stdDeviation="0.039655748"
         id="feGaussianBlur2102" />
    </filter>
    <filter
       inkscape:collect="always"
       style="color-interpolation-filters:sRGB"
       id="filter2104"
       x="-0.00077135192"
       width="1.0015427"
       y="-0.00057863446"
       height="1.0011573">
      <feGaussianBlur
         inkscape:collect="always"
         stdDeviation="0.039655748"
         id="feGaussianBlur2106" />
    </filter>
    <filter
       inkscape:collect="always"
       style="color-interpolation-filters:sRGB"
       id="filter2108"
       x="-0.0010145703"
       width="1.0020291"
       y="-0.00060922927"
       height="1.0012185">
      <feGaussianBlur
         inkscape:collect="always"
         stdDeviation="0.039655748"
         id="feGaussianBlur2110" />
    </filter>
    <filter
       inkscape:collect="always"
       style="color-interpolation-filters:sRGB"
       id="filter2124"
       x="-9.0091121e-07"
       width="1.0000018"
       y="-1.7963681e-06"
       height="1.0000036">
      <feGaussianBlur
         inkscape:collect="always"
         stdDeviation="0.00096333009"
         id="feGaussianBlur2126" />
    </filter>
  </defs>
  <sodipodi:namedview
     pagecolor="#ffffff"
     bordercolor="#666666"
     borderopacity="1"
     objecttolerance="10"
     gridtolerance="10"
     guidetolerance="10"
     inkscape:pageopacity="0"
     inkscape:pageshadow="2"
     inkscape:window-width="1600"
     inkscape:window-height="797"
     id="namedview947"
     showgrid="false"
     inkscape:zoom="0.25"
     inkscape:cx="2292.896"
     inkscape:cy="1107.2693"
     inkscape:window-x="0"
     inkscape:window-y="28"
     inkscape:window-maximized="1"
     inkscape:current-layer="layer2" />
  <g
     id="ViewLayer_LineSet"
     inkscape:groupmode="lineset"
     inkscape:label="ViewLayer_LineSet">
    <g
       inkscape:groupmode="layer"
       id="layer1"
       inkscape:label="fill">
      <path
         style="fill:#005aff;stroke:#000000;stroke-width:0;stroke-linecap:butt;stroke-linejoin:miter;stroke-opacity:1;fill-opacity:1;filter:url(#filter1037);stroke-miterlimit:4;stroke-dasharray:none"
         d="M 3396.974,2080.606 3399.303,25.162 455.193,639.386 456.12,1488.195 3396.974,2080.606 3142.651,1731.51 502.8,1365.034 502.163,762.357 3143.925,376.937 3142.651,1731.51 Z"
         id="path975" />
      <path
         style="fill:#003274;stroke:#000000;stroke-width:0;stroke-linecap:butt;stroke-linejoin:miter;stroke-opacity:1;filter:url(#filter1023);fill-opacity:1;opacity:0.99800004;stroke-miterlimit:4;stroke-dasharray:none"
         d="m 3399.303,25.162 67.428,38.814 -2.344,1979.234 -67.413,37.396 2.329,-2055.444"
         id="path977" />
      <path
         style="fill:#003274;stroke:none;stroke-width:0;stroke-linecap:butt;stroke-linejoin:miter;stroke-opacity:1;filter:url(#filter1033);fill-opacity:1;stroke-miterlimit:4;stroke-dasharray:none"
         d="m 502.8,1365.034 -0.637,-602.677 75.448,4.943 0.593,593.034 -75.404,4.7 75.404,-4.7 2564.478,338.271 -0.031,32.905 L 502.8,1365.034"
         id="path1027" />
      <path
         style="fill:#003274;stroke:none;stroke-width:0;stroke-linecap:butt;stroke-linejoin:miter;stroke-opacity:1;fill-opacity:1;stroke-miterlimit:4;stroke-dasharray:none"
         d="m 577.611,767.3 -75.448,-4.943 2641.762,-385.42 -0.032,34.631 z"
         id="path1041" />
      <path
         style="fill:none;stroke:none;stroke-width:0;stroke-linecap:butt;stroke-linejoin:miter;stroke-opacity:1;stroke-miterlimit:4;stroke-dasharray:none"
         d="m 686.773,1283.438 -30.342,-2.799 -0.352,-374.825 -69.893,5.089 -0.053,-53.837 176.757,-17.196 0.05,58.162 -76.516,5.572 z"
         id="path1043" />
      <path
         style="fill:#003600;stroke:#000000;stroke-width:0;stroke-linecap:butt;stroke-linejoin:miter;stroke-opacity:1;fill-opacity:1;stroke-miterlimit:4;stroke-dasharray:none;opacity:0.99900002;filter:url(#filter2124)"
         d="M 3142.682,1698.605 3143.893,411.568 577.611,767.3 l 0.593,593.034 z"
         id="path1164" />
    </g>
    <g
       inkscape:groupmode="layer"
       id="strokes"
       inkscape:label="strokes"
       style="display:none">
      <path
         fill="none"
         stroke-width="3.0"
         stroke-linecap="butt"
         stroke-opacity="1"
         stroke="rgb(0, 0, 0)"
         stroke-linejoin="miter"
         d="m 3143.925,376.937 -0.01,10 -0.01,10 -0.01,10 v 4.631 l -0.01,10 -0.01,10 -0.01,10 -0.01,10 -0.01,10 -0.01,10 -0.01,10 -0.01,10 -0.01,10 -0.01,10 -0.01,10 -0.01,10 -0.01,10 -0.01,10 -0.01,10 -0.01,10 -0.01,10 -0.01,10 -0.01,10 -0.01,10 -0.01,10 -0.01,10 -0.01,10 -0.01,10 -0.01,10 -0.01,10 -0.01,10 -0.01,10 -0.01,10 -0.01,10 -0.01,10 -0.01,10 -0.01,10 -0.01,10 -0.01,10 -0.01,10 -0.01,10 -0.01,10 -0.01,10 -0.01,10 -0.01,10 -0.01,10 -0.01,10 -0.01,10 -0.01,10 -0.01,10 -0.01,10 -0.01,10 -0.01,10 -0.01,10 -0.01,10 -0.01,10 -0.01,10 -0.01,10 -0.01,10 -0.01,10 -0.01,9.999 -0.01,10.001 -0.01,9.999 -0.01,10 -0.01,10 -0.01,10 -0.01,10 -0.01,10 -0.01,10 -0.01,10 -0.01,10 -0.01,10 -0.01,10 -0.01,10 -0.01,10 -0.01,10 -0.01,10 -0.01,10 -0.01,10 -0.01,10 -0.01,10 -0.01,10 -0.01,10 -0.01,10 -0.01,10 -0.01,10 -0.01,10 -0.01,10 -0.01,10 -0.01,10 -0.01,10 -0.01,10 -0.01,10 -0.01,10 -0.01,10 -0.01,10 -0.01,10 -0.01,10 -0.01,10 -0.01,10 -0.01,10 -0.01,10 -0.01,10 -0.01,10 -0.01,10 -0.01,10 -0.01,10 -0.01,10 -0.01,10 -0.01,10 -0.01,10 -0.01,10 -0.01,10 -0.01,10 -0.01,10 -0.01,10 -0.01,10 -0.01,10 -0.01,10 -0.01,10 -0.01,10 -0.01,10 -0.01,10 -0.01,10 -0.01,10 -0.01,10 -0.01,10 -0.01,10 -0.01,10 -0.01,10 -0.01,10 -0.016,17.038 -0.01,10 -0.01,10 -0.01,10 v 2.905 l -9.905,-1.375 -9.905,-1.375 -9.905,-1.375 -9.905,-1.375 -9.905,-1.376 -9.905,-1.375 -9.905,-1.375 -9.905,-1.375 -9.905,-1.375 -9.905,-1.375 -9.905,-1.375 -9.905,-1.375 -9.905,-1.375 -9.905,-1.375 -9.905,-1.375 -9.905,-1.375 -9.905,-1.375 -9.905,-1.375 -9.905,-1.375 -9.905,-1.375 -9.905,-1.375 -9.905,-1.376 -9.905,-1.375 -9.905,-1.375 -9.905,-1.375 -9.905,-1.375 -9.905,-1.375 -9.905,-1.375 -9.905,-1.375 -9.905,-1.375 -9.905,-1.375 -9.905,-1.375 -9.905,-1.375 -9.905,-1.375 -9.905,-1.375 -9.905,-1.375 -9.905,-1.375 -9.906,-1.375 -9.905,-1.376 -9.905,-1.375 -9.905,-1.375 -9.904,-1.375 -9.905,-1.375 -9.905,-1.375 -9.905,-1.375 -9.905,-1.375 -9.906,-1.375 -9.905,-1.375 -9.905,-1.375 -9.905,-1.375 -9.905,-1.375 -9.905,-1.375 -9.905,-1.375 -9.904,-1.375 -9.906,-1.375 -9.905,-1.375 -9.905,-1.376 -9.905,-1.375 -9.905,-1.375 -9.905,-1.375 -9.905,-1.375 -9.905,-1.375 -9.905,-1.375 -9.905,-1.375 -9.905,-1.375 -9.905,-1.375 -9.905,-1.375 -9.905,-1.375 -9.905,-1.375 -9.905,-1.375 -9.905,-1.375 -9.905,-1.375 -9.905,-1.376 -9.905,-1.375 -9.905,-1.375 -9.905,-1.375 -9.905,-1.375 -9.905,-1.375 -9.905,-1.375 -9.905,-1.375 -9.905,-1.375 -9.905,-1.375 -9.905,-1.375 -9.905,-1.375 -9.905,-1.375 -9.905,-1.375 -9.905,-1.375 -9.905,-1.375 -9.905,-1.375 -9.905,-1.375 -9.905,-1.376 -9.905,-1.375 -9.905,-1.375 -9.905,-1.375 -9.905,-1.375 -9.905,-1.375 -9.905,-1.375 -9.905,-1.375 -9.905,-1.375 -9.905,-1.375 -9.905,-1.375 -9.905,-1.375 -9.905,-1.375 -9.905,-1.375 -9.905,-1.375 -9.905,-1.375 -9.905,-1.375 -9.905,-1.376 -9.905,-1.375 -9.905,-1.375 -9.905,-1.375 -9.905,-1.375 -9.905,-1.375 -9.905,-1.375 -9.905,-1.375 -9.905,-1.375 -9.905,-1.375 -9.905,-1.375 -9.905,-1.375 -9.905,-1.375 -9.905,-1.375 -9.905,-1.375 -9.905,-1.375 -9.905,-1.375 -9.905,-1.375 -9.905,-1.376 -9.905,-1.375 -9.905,-1.375 -9.905,-1.375 -9.905,-1.375 -9.905,-1.375 -9.905,-1.375 -9.905,-1.375 -9.905,-1.375 -9.905,-1.375 -9.905,-1.375 -9.905,-1.375 -9.905,-1.375 -9.905,-1.375 -9.905,-1.375 -9.905,-1.375 -9.905,-1.376 -9.906,-1.375 -9.905,-1.375 -9.905,-1.375 -9.905,-1.375 -9.905,-1.375 -9.904,-1.375 -9.905,-1.375 -9.905,-1.375 -9.905,-1.375 -9.906,-1.375 -9.905,-1.375 -9.904,-1.375 -9.905,-1.375 -9.906,-1.375 -9.905,-1.375 -9.905,-1.375 -9.905,-1.376 -9.905,-1.375 -9.905,-1.375 -9.905,-1.375 -9.905,-1.375 -9.905,-1.375 -9.905,-1.375 -9.905,-1.375 -9.905,-1.375 -9.905,-1.375 -9.905,-1.375 -9.905,-1.375 -9.905,-1.375 -9.905,-1.375 -9.905,-1.375 -9.905,-1.375 -9.905,-1.375 -9.905,-1.375 -9.905,-1.376 -9.905,-1.375 -9.905,-1.375 -9.905,-1.375 -9.905,-1.375 -9.905,-1.375 -9.905,-1.375 -9.905,-1.375 -9.905,-1.375 -9.905,-1.375 -9.905,-1.375 -9.905,-1.375 -9.905,-1.375 -9.905,-1.375 -9.905,-1.375 -9.905,-1.375 -9.905,-1.375 -9.905,-1.376 -9.905,-1.375 -9.905,-1.375 -9.905,-1.375 -9.905,-1.375 -9.905,-1.375 -9.905,-1.375 -9.905,-1.375 -9.905,-1.375 -9.905,-1.375 -9.905,-1.375 -9.905,-1.375 -9.905,-1.375 -9.905,-1.375 -9.905,-1.375 -9.905,-1.375 -9.905,-1.375 -9.905,-1.376 -9.905,-1.375 -9.905,-1.375 -9.905,-1.375 -9.905,-1.375 -9.905,-1.375 -9.905,-1.375 -9.905,-1.375 -9.905,-1.375 -9.905,-1.375 -9.905,-1.375 -9.905,-1.375 -9.905,-1.375 -9.905,-1.375 -9.905,-1.375 -9.905,-1.375 -9.905,-1.375 -9.905,-1.375 -9.905,-1.376 -9.905,-1.375 -9.905,-1.375 -9.905,-1.375 -9.905,-1.375 -9.905,-1.375 -9.905,-1.375 -9.905,-1.375 -9.905,-1.375 -9.905,-1.375 -9.905,-1.375 -9.905,-1.375 -9.905,-1.375 -9.905,-1.375 -9.905,-1.375 -9.905,-1.375 -9.905,-1.376 -9.905,-1.375 -9.905,-1.375 -9.905,-1.375 -9.905,-1.375 -9.906,-1.375 -9.904,-1.375 -9.905,-1.375 -9.906,-1.375 -9.905,-1.375 -9.905,-1.375 -9.905,-1.375 -9.905,-1.375 -9.905,-1.375 -9.905,-1.375 -9.905,-1.375 -9.905,-1.375 -9.904,-1.375 -9.906,-1.376 -34.833,-4.835"
         id="path909"
         style="stroke:none;stroke-width:7.55906;stroke-linecap:butt;stroke-linejoin:round;stroke-miterlimit:4;stroke-dasharray:none;filter:url(#filter1338)" />
      <path
         fill="none"
         stroke-width="3.0"
         stroke-linecap="butt"
         stroke-opacity="1"
         stroke="rgb(0, 0, 0)"
         stroke-linejoin="miter"
         d="m 502.163,762.357 0.011,10 0.01,10 0.011,10 0.011,10 0.01,10 0.011,10 0.01,10 0.011,10 0.01,10 0.011,10 0.011,10 0.01,10 0.011,10 0.01,10 0.011,10 0.01,10 0.011,10 0.011,10 0.01,10 0.011,10 0.01,10 0.011,10 0.01,10 0.011,10 0.011,10 0.01,10 0.011,10 0.01,10 0.011,10 0.01,10 0.011,10 0.01,10 0.011,10 0.011,10 0.01,10 0.011,10 0.01,10 0.011,10 0.01,10 0.011,10 0.011,10 0.01,10 0.011,10 0.01,10 0.011,10 0.01,10 0.011,10 0.011,10 0.01,10 0.011,10 0.01,10 0.011,10 0.01,10 0.011,10 0.011,10 0.01,10 0.011,10 0.01,10 0.011,10 0.013,12.677 9.981,-0.622 9.98,-0.622 9.981,-0.622 9.981,-0.623 9.98,-0.622 9.981,-0.622 9.981,-0.622 5.539,-0.345"
         id="path911"
         style="stroke:none;stroke-width:7.55906;stroke-linecap:butt;stroke-linejoin:round;stroke-miterlimit:4;stroke-dasharray:none;filter:url(#filter1334)" />
      <path
         fill="none"
         stroke-width="3.0"
         stroke-linecap="butt"
         stroke-opacity="1.0"
         stroke="rgb(0, 0, 0)"
         stroke-linejoin="miter"
         d="m 3396.974,2080.606 8.745,-4.851 8.744,-4.85 8.745,-4.851 8.744,-4.851 8.745,-4.851 8.745,-4.851 8.745,-4.851 6.2,-3.44 0.012,-10 0.012,-10 0.012,-10 0.011,-10 0.012,-10 0.012,-9.999 0.012,-10 0.012,-10 0.012,-10 0.011,-10 0.012,-10 0.012,-10 0.012,-10 0.012,-10 0.012,-10 0.011,-10 0.012,-10 0.012,-10 0.012,-10 0.012,-10 0.012,-10 0.011,-10 0.012,-10 0.012,-10 0.012,-10 0.012,-10 0.012,-10 0.012,-10 0.011,-10 0.012,-10 0.012,-10 0.012,-10 0.012,-10 0.012,-10 0.012,-10 0.011,-10 0.012,-10 0.012,-10 0.012,-10 0.012,-10 0.012,-10 0.012,-10 0.011,-10 0.012,-10 0.012,-10 0.012,-10 0.012,-10 0.012,-10 0.011,-10 0.012,-10 0.012,-10 0.012,-10 0.012,-10 0.012,-10 0.011,-10 0.012,-10 0.012,-10 0.012,-10 0.012,-10 0.012,-10 0.011,-10 0.012,-10 0.012,-10 0.012,-10 0.012,-10 0.012,-10 0.011,-10 0.012,-10 0.012,-10 0.012,-10 0.012,-10 0.012,-10 0.012,-10 0.011,-10 0.012,-10 0.012,-10 0.012,-10 0.012,-10 0.012,-10 0.011,-10 0.012,-10 0.012,-10 0.012,-10 0.012,-10 0.012,-10 0.012,-10 0.011,-10 0.012,-10 0.012,-10 0.012,-10 0.012,-10 0.012,-10 0.012,-10 0.011,-10 0.012,-10 0.012,-10 0.012,-10 0.012,-10 0.012,-10 0.011,-10 0.012,-10 0.012,-10 0.012,-10 0.012,-10 0.012,-10 0.011,-10 0.012,-10 0.012,-10 0.012,-10 0.012,-10 0.012,-10 0.012,-10 0.011,-10 0.012,-10 0.012,-10 0.012,-10 0.012,-10 0.012,-10 0.011,-10 0.012,-10 0.012,-10 0.012,-10 0.012,-10 0.012,-10 0.011,-10 0.012,-10 0.012,-10 0.012,-10 0.012,-10 0.012,-10 0.011,-10 0.012,-10 0.012,-10 0.012,-10 0.012,-10 0.012,-10 0.012,-9.999 0.011,-10.001 0.012,-10 0.012,-10 0.012,-10 0.012,-9.999 0.012,-10 0.012,-10 0.011,-10 0.012,-10.001 0.012,-10 0.012,-9.999 0.012,-10 0.012,-10 0.012,-10 0.011,-10 0.012,-10 0.012,-10 0.012,-10 0.012,-10 0.012,-10 0.011,-10 0.012,-10 0.012,-10 0.012,-10 0.012,-10 0.012,-10 0.011,-10 0.012,-10 0.012,-10 0.012,-10 0.012,-10 0.012,-10 0.011,-10 0.012,-10 0.012,-10 0.012,-10 0.012,-10 0.012,-10 0.011,-10 0.012,-10 0.012,-10 0.012,-10 0.012,-10 0.012,-10 0.011,-10 0.012,-10 0.012,-10 0.012,-10 0.012,-10 0.012,-10 0.012,-10 0.011,-10 0.012,-10 0.012,-10 0.012,-10 0.012,-10 0.012,-10 0.012,-10 0.034,-29.236 -8.667,-4.989 -8.666,-4.989 -8.667,-4.989 -8.667,-4.989 -8.666,-4.989 -8.667,-4.989 -8.667,-4.988 -6.761,-3.892 -9.789,2.042 -9.789,2.043 -9.789,2.042 -9.789,2.042 -9.79,2.043 -9.789,2.042 -9.789,2.042 -9.789,2.042 -9.79,2.043 -9.789,2.042 -9.789,2.042 -9.789,2.043 -9.79,2.042 -9.789,2.042 -9.789,2.043 -9.789,2.042 -9.789,2.042 -9.79,2.042 -9.789,2.043 -9.789,2.042 -9.789,2.042 -9.79,2.043 -9.789,2.042 -9.789,2.042 -9.789,2.043 -9.789,2.042 -9.79,2.042 -9.789,2.042 -9.789,2.043 -9.789,2.042 -9.79,2.042 -9.789,2.043 -9.789,2.042 -9.789,2.042 -9.789,2.043 -9.79,2.042 -9.789,2.042 -9.789,2.043 -9.789,2.042 -9.79,2.042 -9.789,2.042 -9.789,2.043 -9.789,2.042 -9.789,2.042 -9.79,2.043 -9.789,2.042 -9.789,2.042 -9.789,2.043 -9.79,2.042 -9.789,2.042 -9.789,2.043 -9.789,2.042 -9.79,2.042 -9.789,2.043 -9.789,2.042 -9.789,2.042 -9.789,2.042 -9.79,2.043 -9.789,2.042 -9.789,2.042 -9.789,2.043 -9.79,2.042 -9.789,2.042 -9.789,2.043 -9.789,2.042 -9.789,2.042 -9.79,2.043 -9.789,2.042 -9.789,2.042 -9.789,2.043 -9.79,2.042 -9.789,2.042 -9.789,2.042 -9.789,2.043 -9.789,2.042 -9.79,2.042 -9.789,2.043 -9.789,2.042 -9.789,2.042 -9.79,2.043 -9.789,2.042 -9.789,2.042 -9.789,2.042 -9.79,2.043 -9.789,2.042 -9.789,2.042 -9.789,2.043 -9.789,2.042 -9.79,2.042 -9.789,2.043 -9.789,2.042 -9.789,2.042 -9.79,2.043 -9.789,2.042 -9.789,2.042 -9.789,2.043 -9.789,2.042 -9.79,2.042 -9.789,2.042 -9.789,2.043 -9.789,2.042 -9.79,2.042 -9.789,2.043 -9.789,2.042 -9.789,2.042 -9.79,2.043 -9.789,2.042 -9.789,2.042 -9.789,2.043 -9.789,2.042 -9.79,2.042 -9.789,2.043 -9.789,2.042 -9.789,2.042 -9.79,2.042 -9.789,2.043 -9.789,2.042 -9.789,2.042 -9.79,2.043 -9.789,2.042 -9.789,2.042 -9.789,2.043 -9.789,2.042 -9.79,2.042 -9.789,2.042 -9.789,2.043 -9.789,2.042 -9.79,2.042 -9.789,2.043 -9.789,2.042 -9.789,2.042 -9.79,2.043 -9.789,2.042 -9.789,2.042 -9.789,2.043 -9.789,2.042 -9.79,2.042 -9.789,2.042 -9.789,2.043 -9.789,2.042 -9.79,2.042 -9.789,2.043 -9.789,2.042 -9.789,2.042 -9.79,2.043 -9.789,2.042 -9.789,2.042 -9.789,2.043 -9.789,2.042 -9.79,2.042 -9.789,2.043 -9.789,2.042 -9.789,2.042 -9.789,2.042 -9.79,2.043 -9.789,2.042 -9.789,2.042 -9.79,2.043 -9.789,2.042 -9.789,2.042 -9.789,2.043 -9.789,2.042 -9.79,2.042 -9.789,2.042 -9.789,2.043 -9.789,2.042 -9.789,2.042 -9.79,2.043 -9.789,2.042 -9.789,2.042 -9.789,2.043 -9.79,2.042 -9.789,2.042 -9.789,2.043 -9.789,2.042 -9.789,2.042 -9.79,2.043 -9.789,2.042 -9.789,2.042 -9.79,2.042 -9.789,2.043 -9.789,2.042 -9.789,2.042 -9.789,2.043 -9.79,2.042 -9.789,2.042 -9.789,2.043 -9.789,2.042 -9.789,2.042 -9.79,2.043 -9.789,2.042 -9.789,2.042 -9.789,2.043 -9.79,2.042 -9.789,2.042 -9.789,2.042 -9.789,2.043 -9.79,2.042 -9.789,2.042 -9.789,2.043 -9.789,2.042 -9.79,2.042 -9.789,2.043 -9.789,2.042 -9.789,2.042 -9.789,2.042 -9.79,2.043 -9.789,2.042 -9.789,2.042 -9.789,2.043 -9.79,2.042 -9.789,2.042 -9.789,2.043 -9.789,2.042 -9.789,2.042 -9.79,2.043 -9.789,2.042 -9.789,2.042 -9.789,2.042 -9.79,2.043 -9.789,2.042 -9.789,2.042 -9.789,2.043 -9.79,2.042 -9.789,2.042 -9.789,2.043 -9.789,2.042 -9.789,2.042 -9.79,2.043 -9.789,2.042 -9.789,2.042 -9.789,2.043 -9.79,2.042 -9.789,2.042 -9.789,2.042 -9.789,2.043 -9.789,2.042 -9.79,2.042 -9.789,2.043 -9.789,2.042 -9.79,2.042 -9.789,2.043 -9.789,2.042 -9.789,2.042 -9.789,2.043 -9.789,2.042 -9.79,2.042 -9.789,2.043 -9.789,2.042 -9.789,2.042 -9.79,2.042 -9.789,2.043 -9.789,2.042 -9.789,2.042 -9.79,2.043 -9.789,2.042 -9.789,2.042 -9.789,2.043 -9.789,2.042 -9.79,2.042 -9.789,2.042 -9.789,2.043 -9.789,2.042 -9.79,2.042 -9.789,2.043 -9.789,2.042 -9.789,2.042 -9.789,2.043 -9.79,2.042 -9.789,2.042 -9.789,2.043 -9.789,2.042 -9.79,2.042 -9.789,2.043 -9.789,2.042 -9.789,2.042 -9.79,2.042 -9.789,2.043 -9.789,2.042 -9.789,2.042 -9.789,2.043 -9.79,2.042 -9.789,2.042 -9.789,2.043 -9.789,2.042 -9.79,2.042 -9.789,2.043 -9.789,2.042 -9.789,2.042 -9.79,2.042 -9.789,2.043 -9.789,2.042 -9.789,2.042 -9.789,2.043 -9.79,2.042 -9.789,2.042 -9.789,2.043 -36.71,7.658 0.011,10 0.011,10 0.011,10 0.011,10 0.011,10 0.011,10 0.011,10 0.01,10 0.011,10 0.011,10 0.011,10 0.011,10 0.011,10 0.011,10 0.011,10 0.011,10 0.011,10 0.011,10 0.011,10 0.01,10 0.011,10 0.011,10 0.011,10 0.011,10 0.011,10 0.011,10 0.011,10 0.011,10 0.011,10 0.011,10 0.011,10 0.011,10 0.01,10 0.011,10 0.011,10 0.011,10 0.011,10 0.011,10 0.011,10 0.011,10 0.011,10 0.011,10 0.011,10 0.011,10 0.011,10 0.01,10 0.011,10 0.011,10 0.011,10 0.011,10 0.011,10 0.011,10 0.011,10 0.011,10 0.011,10 0.011,10 0.011,10 0.011,10 0.01,10 0.011,10 0.011,10 0.011,10 0.011,10 0.011,10 0.011,10 0.011,10 0.011,10 0.011,10 0.011,10 0.011,10 0.011,10 0.01,10 0.011,10 0.011,10 0.011,10 0.011,10 0.011,10 0.011,10 0.011,10 0.011,10 0.011,10 0.011,10 0.011,10 0.011,10 0.009,8.809 9.803,1.975 9.803,1.975 9.803,1.975 9.803,1.974 9.804,1.975 9.803,1.975 9.803,1.975 9.803,1.974 9.803,1.975 9.803,1.975 9.803,1.975 9.803,1.974 9.803,1.975 9.803,1.975 9.803,1.975 9.803,1.974 9.804,1.975 9.803,1.975 9.803,1.975 9.803,1.974 9.803,1.975 9.803,1.975 9.803,1.975 9.803,1.974 9.803,1.975 9.803,1.975 9.803,1.975 9.803,1.974 9.803,1.975 9.804,1.975 9.803,1.975 9.803,1.974 9.803,1.975 9.803,1.975 9.803,1.975 9.803,1.974 9.803,1.975 9.803,1.975 9.803,1.975 9.803,1.974 9.803,1.975 9.803,1.975 9.804,1.975 9.803,1.974 9.803,1.975 9.803,1.975 9.803,1.975 9.803,1.974 9.803,1.975 9.803,1.975 9.803,1.975 9.803,1.974 9.803,1.975 9.804,1.975 9.803,1.975 9.803,1.974 9.803,1.975 9.803,1.975 9.803,1.975 9.803,1.974 9.803,1.975 9.803,1.975 9.803,1.975 9.803,1.974 9.803,1.975 9.803,1.975 9.804,1.975 9.803,1.974 9.803,1.975 9.803,1.975 9.803,1.975 9.803,1.974 9.803,1.975 9.803,1.975 9.803,1.975 9.803,1.974 9.803,1.975 9.803,1.975 9.803,1.975 9.804,1.974 9.803,1.975 9.803,1.975 9.803,1.975 9.803,1.974 9.803,1.975 9.803,1.975 9.803,1.975 9.803,1.974 9.803,1.975 9.803,1.975 9.803,1.975 9.803,1.974 9.804,1.975 9.803,1.975 9.803,1.975 9.803,1.974 9.803,1.975 9.803,1.975 9.803,1.975 9.803,1.974 9.803,1.975 9.803,1.975 9.803,1.975 9.803,1.974 9.803,1.975 9.804,1.975 9.803,1.975 9.803,1.974 9.803,1.975 9.803,1.975 9.803,1.975 9.803,1.974 9.803,1.975 9.803,1.975 9.803,1.975 9.803,1.974 9.804,1.975 9.803,1.975 9.803,1.975 9.803,1.974 9.803,1.975 9.803,1.975 9.803,1.975 9.803,1.974 9.803,1.975 9.803,1.975 9.803,1.975 9.803,1.974 9.803,1.975 9.804,1.975 9.803,1.975 9.803,1.974 9.803,1.975 9.803,1.975 9.803,1.975 9.803,1.974 9.803,1.975 9.803,1.975 9.803,1.975 9.803,1.974 9.803,1.975 9.803,1.975 9.804,1.975 9.803,1.974 9.803,1.975 9.803,1.975 9.803,1.975 9.803,1.974 9.803,1.975 9.803,1.975 9.803,1.975 9.803,1.974 9.803,1.975 9.803,1.975 9.804,1.975 9.803,1.974 9.803,1.975 9.803,1.975 9.803,1.975 9.803,1.974 9.803,1.975 9.803,1.975 9.803,1.975 9.803,1.974 9.803,1.975 9.803,1.975 9.804,1.975 9.803,1.974 9.803,1.975 9.803,1.975 9.803,1.975 9.803,1.974 9.803,1.975 9.803,1.975 9.803,1.975 9.803,1.974 9.803,1.975 9.803,1.975 9.803,1.975 9.804,1.974 9.803,1.975 9.803,1.975 9.803,1.975 9.803,1.974 9.803,1.975 9.803,1.975 9.803,1.975 9.803,1.974 9.803,1.975 9.803,1.975 9.803,1.975 9.803,1.974 9.804,1.975 9.802,1.975 9.804,1.975 9.803,1.974 9.803,1.975 9.803,1.975 9.803,1.975 9.803,1.974 9.803,1.975 9.803,1.975 9.804,1.975 9.802,1.974 9.803,1.975 9.804,1.975 9.803,1.975 9.803,1.974 9.803,1.975 9.803,1.975 9.803,1.975 9.803,1.974 9.803,1.975 9.803,1.975 9.803,1.975 9.803,1.974 9.803,1.975 9.803,1.975 9.804,1.975 9.803,1.974 9.803,1.975 9.803,1.975 9.803,1.975 9.803,1.974 9.803,1.975 9.803,1.975 9.803,1.975 9.803,1.974 9.803,1.975 9.803,1.975 9.804,1.975 9.803,1.974 9.803,1.975 9.803,1.975 9.803,1.975 9.803,1.974 9.803,1.975 9.803,1.975 9.803,1.975 9.803,1.974 9.803,1.975 9.804,1.975 9.803,1.975 9.803,1.974 9.803,1.975 9.803,1.975 9.803,1.975 9.803,1.974 9.803,1.975 9.803,1.975 9.803,1.975 9.803,1.974 9.803,1.975 9.803,1.975 9.804,1.975 9.802,1.974 9.803,1.975 9.804,1.975 9.803,1.975 9.803,1.974 9.803,1.975 9.803,1.975 9.803,1.975 9.803,1.974 9.803,1.975 9.803,1.975 9.803,1.975 9.803,1.974 9.803,1.975 9.804,1.975 9.803,1.975 9.803,1.974 9.803,1.975 9.803,1.975 9.803,1.975 9.803,1.974 9.803,1.975 9.803,1.975 9.803,1.975 9.803,1.974 9.804,1.975 9.803,1.975 9.803,1.975 9.803,1.974 9.803,1.975 9.803,1.975 9.803,1.975 9.803,1.974 9.803,1.975 9.803,1.975 9.803,1.975 9.803,1.974 9.803,1.975 9.804,1.975 9.803,1.975 9.803,1.974 39.142,7.885"
         id="path913"
         style="stroke:none;stroke-width:7.55906;stroke-linecap:butt;stroke-linejoin:round;stroke-miterlimit:4;stroke-dasharray:none;stroke-opacity:1;filter:url(#filter1330)" />
      <path
         fill="none"
         stroke-width="3.0"
         stroke-linecap="butt"
         stroke-opacity="1"
         stroke="rgb(0, 0, 0)"
         stroke-linejoin="miter"
         d="m 3143.925,376.937 -9.895,1.443 -9.895,1.444 -9.896,1.444 -9.895,1.444 -9.895,1.443 -9.895,1.444 -9.896,1.444 -9.895,1.443 -9.895,1.444 -9.895,1.444 -9.896,1.443 -9.895,1.444 -9.895,1.444 -9.895,1.443 -9.896,1.444 -9.895,1.444 -9.895,1.443 -9.895,1.444 -9.895,1.444 -9.896,1.443 -9.895,1.444 -9.895,1.444 -9.896,1.443 -9.895,1.444 -9.895,1.444 -9.895,1.443 -9.896,1.444 -9.895,1.444 -9.895,1.443 -9.895,1.444 -9.895,1.444 -9.896,1.443 -9.895,1.444 -9.895,1.444 -9.895,1.443 -9.896,1.444 -9.895,1.444 -9.895,1.443 -9.896,1.444 -9.895,1.444 -9.895,1.443 -9.895,1.444 -9.895,1.444 -9.896,1.443 -9.895,1.444 -9.895,1.444 -9.895,1.443 -9.896,1.444 -9.895,1.444 -9.895,1.443 -9.895,1.444 -9.896,1.444 -9.895,1.443 -9.895,1.444 -9.895,1.444 -9.895,1.443 -9.896,1.444 -9.895,1.444 -9.895,1.443 -9.896,1.444 -9.895,1.444 -9.895,1.443 -9.895,1.444 -9.896,1.444 -9.895,1.443 -9.895,1.444 -9.895,1.444 -9.895,1.443 -9.896,1.444 -9.895,1.444 -9.895,1.443 -9.895,1.444 -9.896,1.444 -9.895,1.443 -9.895,1.444 -9.896,1.444 -9.895,1.443 -9.895,1.444 -9.895,1.444 -9.895,1.443 -9.896,1.444 -9.895,1.444 -9.895,1.443 -9.895,1.444 -9.896,1.444 -9.895,1.443 -9.895,1.444 -9.895,1.444 -9.895,1.443 -9.896,1.444 -9.895,1.444 -9.895,1.443 -9.896,1.444 -9.895,1.444 -9.895,1.443 -9.895,1.444 -9.896,1.444 -9.895,1.443 -9.895,1.444 -9.895,1.444 -9.895,1.443 -9.896,1.444 -9.895,1.444 -9.895,1.443 -9.895,1.444 -9.896,1.444 -9.895,1.443 -9.895,1.444 -9.895,1.444 -9.896,1.443 -9.895,1.444 -9.895,1.444 -9.895,1.443 -9.896,1.444 -9.895,1.444 -9.895,1.443 -9.895,1.444 -9.896,1.444 -9.895,1.443 -9.895,1.444 -9.895,1.444 -9.896,1.443 -9.895,1.444 -9.895,1.444 -9.895,1.443 -9.896,1.444 -9.895,1.444 -9.895,1.443 -9.895,1.444 -9.896,1.444 -9.895,1.443 -9.895,1.444 -9.895,1.444 -9.896,1.443 -9.895,1.444 -9.895,1.444 -9.895,1.443 -9.895,1.444 -9.896,1.444 -9.895,1.443 -9.895,1.444 -9.895,1.444 -9.896,1.443 -9.895,1.444 -9.895,1.444 -9.895,1.443 -9.896,1.444 -9.895,1.444 -9.895,1.443 -9.895,1.444 -9.896,1.444 -9.895,1.443 -9.895,1.444 -9.896,1.444 -9.895,1.443 -9.895,1.444 -9.895,1.444 -9.895,1.443 -9.896,1.444 -9.895,1.444 -9.895,1.443 -9.895,1.444 -9.896,1.444 -9.895,1.443 -9.895,1.444 -9.895,1.444 -9.896,1.443 -9.895,1.444 -9.895,1.444 -9.895,1.443 -9.895,1.444 -9.896,1.444 -9.895,1.443 -9.895,1.444 -9.896,1.444 -9.895,1.443 -9.895,1.444 -9.895,1.444 -9.895,1.443 -9.896,1.444 -9.895,1.444 -9.895,1.443 -9.895,1.444 -9.896,1.444 -9.895,1.443 -9.895,1.444 -9.895,1.444 -9.896,1.443 -9.895,1.444 -9.895,1.444 -9.895,1.443 -9.896,1.444 -9.895,1.444 -9.895,1.443 -9.895,1.444 -9.896,1.444 -9.895,1.443 -9.895,1.444 -9.895,1.444 -9.896,1.443 -9.895,1.444 -9.895,1.444 -9.895,1.443 -9.895,1.444 -9.896,1.444 -9.895,1.443 -9.895,1.444 -9.896,1.444 -9.895,1.443 -9.895,1.444 -9.895,1.444 -9.895,1.443 -9.896,1.444 -9.895,1.444 -9.895,1.443 -9.895,1.444 -9.896,1.444 -9.895,1.443 -9.895,1.444 -9.896,1.444 -9.895,1.443 -9.895,1.444 -9.895,1.444 -9.895,1.443 -9.896,1.444 -9.895,1.444 -9.895,1.443 -9.895,1.444 -9.896,1.444 -9.895,1.443 -9.895,1.444 -9.895,1.444 -9.896,1.443 -9.895,1.444 -9.895,1.444 -9.895,1.443 -9.895,1.444 -9.896,1.444 -9.895,1.443 -9.895,1.444 -9.896,1.444 -9.895,1.443 -9.895,1.444 -9.895,1.444 -9.895,1.443 -9.896,1.444 -9.895,1.444 -9.895,1.443 -9.895,1.444 -9.896,1.444 -9.895,1.443 -9.895,1.444 -9.895,1.444 -9.896,1.443 -9.895,1.444 -9.895,1.444 -9.895,1.443 -9.896,1.444 -9.895,1.444 -9.895,1.443 -9.895,1.444 -9.896,1.444 -9.895,1.443 -9.895,1.444 -29.418,4.292 9.979,0.654 9.979,0.654 9.978,0.653 9.979,0.654 9.978,0.654 9.979,0.654 9.979,0.653 5.597,0.367"
         id="path915"
         style="stroke:none;stroke-width:7.55906;stroke-linecap:butt;stroke-linejoin:round;stroke-miterlimit:4;stroke-dasharray:none;filter:url(#filter1326)" />
      <path
         fill="none"
         stroke-width="3.0"
         stroke-linecap="butt"
         stroke-opacity="1"
         stroke="rgb(0, 0, 0)"
         stroke-linejoin="miter"
         d="m 3142.682,1698.605 -9.914,-1.307 -9.914,-1.308 -9.915,-1.308 -9.914,-1.308 -9.914,-1.307 -9.914,-1.308 -9.914,-1.308 -9.914,-1.308 -9.914,-1.307 -9.914,-1.308 -9.915,-1.308 -9.914,-1.308 -9.914,-1.307 -9.914,-1.308 -9.914,-1.308 -9.914,-1.308 -9.914,-1.307 -9.914,-1.308 -9.915,-1.308 -9.914,-1.307 -9.914,-1.308 -9.914,-1.308 -9.914,-1.308 -9.914,-1.307 -9.914,-1.308 -9.914,-1.308 -9.915,-1.308 -9.914,-1.307 -9.914,-1.308 -9.914,-1.308 -9.914,-1.308 -9.914,-1.307 -9.914,-1.308 -9.914,-1.308 -9.914,-1.308 -9.915,-1.307 -9.914,-1.308 -9.914,-1.308 -9.914,-1.307 -9.914,-1.308 -9.914,-1.308 -9.914,-1.308 -9.914,-1.307 -9.915,-1.308 -9.914,-1.308 -9.914,-1.308 -9.914,-1.307 -9.914,-1.308 -9.914,-1.308 -9.914,-1.308 -9.914,-1.307 -9.915,-1.308 -9.914,-1.308 -9.914,-1.308 -9.914,-1.307 -9.914,-1.308 -9.914,-1.308 -9.914,-1.307 -9.914,-1.308 -9.915,-1.308 -9.914,-1.308 -9.914,-1.307 -9.914,-1.308 -9.914,-1.308 -9.914,-1.308 -9.914,-1.307 -9.914,-1.308 -9.915,-1.308 -9.914,-1.308 -9.914,-1.307 -9.914,-1.308 -9.914,-1.308 -9.914,-1.308 -9.914,-1.307 -9.914,-1.308 -9.915,-1.308 -9.914,-1.308 -9.914,-1.307 -9.914,-1.308 -9.914,-1.308 -9.914,-1.307 -9.914,-1.308 -9.914,-1.308 -9.914,-1.308 -9.915,-1.307 -9.914,-1.308 -9.914,-1.308 -9.914,-1.308 -9.914,-1.307 -9.914,-1.308 -9.914,-1.308 -9.914,-1.308 -9.915,-1.307 -9.914,-1.308 -9.914,-1.308 -9.914,-1.308 -9.914,-1.307 -9.914,-1.308 -9.914,-1.308 -9.914,-1.307 -9.915,-1.308 -9.914,-1.308 -9.914,-1.308 -9.914,-1.307 -9.914,-1.308 -9.914,-1.308 -9.914,-1.308 -9.914,-1.307 -9.915,-1.308 -9.914,-1.308 -9.914,-1.308 -9.914,-1.307 -9.914,-1.308 -9.914,-1.308 -9.914,-1.307 -9.914,-1.308 -9.914,-1.308 -9.915,-1.308 -9.914,-1.307 -9.914,-1.308 -9.914,-1.308 -9.914,-1.308 -9.914,-1.307 -9.914,-1.308 -9.914,-1.308 -9.915,-1.308 -9.914,-1.307 -9.914,-1.308 -9.914,-1.308 -9.914,-1.308 -9.914,-1.307 -9.914,-1.308 -9.914,-1.308 -9.915,-1.308 -9.914,-1.307 -9.914,-1.308 -9.914,-1.308 -9.914,-1.307 -9.914,-1.308 -9.914,-1.308 -9.914,-1.308 -9.915,-1.307 -9.914,-1.308 -9.914,-1.308 -9.914,-1.308 -9.914,-1.307 -9.914,-1.308 -9.914,-1.308 -9.914,-1.308 -9.915,-1.307 -9.914,-1.308 -9.914,-1.308 -9.914,-1.308 -9.914,-1.307 -9.914,-1.308 -9.914,-1.308 -9.914,-1.307 -9.915,-1.308 -9.914,-1.308 -9.914,-1.308 -9.914,-1.307 -9.914,-1.308 -9.914,-1.308 -9.914,-1.308 -9.914,-1.307 -9.914,-1.308 -9.915,-1.308 -9.914,-1.308 -9.914,-1.307 -9.914,-1.308 -9.914,-1.308 -9.914,-1.308 -9.914,-1.307 -9.914,-1.308 -9.915,-1.308 -9.914,-1.307 -9.914,-1.308 -9.914,-1.308 -9.914,-1.308 -9.914,-1.307 -9.914,-1.308 -9.914,-1.308 -9.915,-1.308 -9.914,-1.307 -9.914,-1.308 -9.914,-1.308 -9.914,-1.308 -9.914,-1.307 -9.914,-1.308 -9.914,-1.308 -9.915,-1.307 -9.914,-1.308 -9.914,-1.308 -9.914,-1.308 -9.914,-1.307 -9.914,-1.308 -9.914,-1.308 -9.914,-1.308 -9.915,-1.307 -9.914,-1.308 -9.914,-1.308 -9.914,-1.308 -9.914,-1.307 -9.914,-1.308 -9.914,-1.308 -9.914,-1.308 -9.915,-1.307 -9.914,-1.308 -9.914,-1.308 -9.914,-1.308 -9.914,-1.307 -9.914,-1.308 -9.914,-1.308 -9.914,-1.307 -9.914,-1.308 -9.915,-1.308 -9.914,-1.308 -9.914,-1.307 -9.914,-1.308 -9.914,-1.308 -9.914,-1.308 -9.914,-1.307 -9.914,-1.308 -9.915,-1.308 -9.914,-1.308 -9.914,-1.307 -9.914,-1.308 -9.914,-1.308 -9.914,-1.308 -9.914,-1.307 -9.914,-1.308 -9.915,-1.308 -9.914,-1.307 -9.914,-1.308 -9.914,-1.308 -9.914,-1.308 -9.914,-1.307 -9.914,-1.308 -9.914,-1.308 -9.915,-1.308 -9.914,-1.307 -9.914,-1.308 -9.914,-1.308 -9.914,-1.308 -9.914,-1.307 -9.914,-1.308 -9.914,-1.308 -9.915,-1.308 -9.914,-1.307 -9.914,-1.308 -9.914,-1.308 -9.914,-1.307 -9.914,-1.308 -9.914,-1.308 -9.914,-1.308 -9.915,-1.307 -26.462,-3.491 -0.01,-10 -0.01,-10 -0.01,-10 -0.01,-10 -0.01,-10 -0.01,-10 -0.01,-10 -0.01,-10 -0.01,-10 -0.01,-10 -0.01,-10 -0.01,-10 -0.01,-10 -0.01,-10 -0.01,-10 -0.01,-10 -0.01,-10 -0.01,-10 -0.01,-10 -0.01,-10 -0.01,-10 -0.01,-10 -0.01,-10 -0.01,-10 -0.01,-10 -0.01,-10 -0.01,-10 -0.01,-10 -0.01,-10 -0.01,-10 -0.01,-10 -0.01,-10 -0.01,-10 -0.01,-10 -0.01,-10 -0.01,-10 -0.01,-10 -0.01,-10 -0.01,-10 -0.01,-10 -0.01,-10 -0.01,-10 -0.01,-10 -0.01,-10 -0.01,-10 -0.01,-10 -0.01,-10 -0.01,-10 -0.01,-10 -0.01,-10 -0.01,-10 -0.01,-10 -0.01,-10 -0.01,-10 -0.01,-10 -0.01,-10 -0.01,-10 -0.01,-10 -0.013,-13.034 9.905,-1.373 9.906,-1.373 9.905,-1.373 9.905,-1.373 9.906,-1.373 9.905,-1.373 9.905,-1.373 9.905,-1.373 9.906,-1.373 9.905,-1.373 9.905,-1.373 9.906,-1.373 9.905,-1.373 9.905,-1.373 9.905,-1.374 9.906,-1.373 9.905,-1.373 9.905,-1.373 9.906,-1.373 9.905,-1.373 9.905,-1.373 9.905,-1.373 9.906,-1.373 9.905,-1.373 9.905,-1.373 9.906,-1.373 9.905,-1.373 9.905,-1.373 9.905,-1.373 9.906,-1.373 9.905,-1.373 9.905,-1.373 9.906,-1.373 9.905,-1.374 9.905,-1.373 9.905,-1.373 9.906,-1.373 9.905,-1.373 9.905,-1.373 9.906,-1.373 9.905,-1.373 9.905,-1.373 9.906,-1.373 9.905,-1.373 9.905,-1.373 9.905,-1.373 9.906,-1.373 9.905,-1.373 9.905,-1.373 9.905,-1.373 9.906,-1.373 9.905,-1.373 9.905,-1.373 9.906,-1.373 9.905,-1.374 9.905,-1.373 9.906,-1.373 9.905,-1.373 9.905,-1.373 9.905,-1.373 9.906,-1.373 9.905,-1.373 9.905,-1.373 9.906,-1.373 9.905,-1.373 9.905,-1.373 9.905,-1.373 9.906,-1.373 9.905,-1.373 9.905,-1.373 9.905,-1.373 9.906,-1.373 9.905,-1.373 9.905,-1.374 9.906,-1.373 9.905,-1.373 9.905,-1.373 9.906,-1.373 9.905,-1.373 9.905,-1.373 9.905,-1.373 9.906,-1.373 9.905,-1.373 9.905,-1.373 9.906,-1.373 9.905,-1.373 9.905,-1.373 9.905,-1.373 9.906,-1.373 9.905,-1.373 9.905,-1.373 9.906,-1.373 9.905,-1.373 9.905,-1.373 9.905,-1.374 9.906,-1.373 9.905,-1.373 9.905,-1.373 9.906,-1.373 9.905,-1.373 9.905,-1.373 9.905,-1.373 9.906,-1.373 9.905,-1.373 9.905,-1.373 9.906,-1.373 9.905,-1.373 9.905,-1.373 9.905,-1.373 9.906,-1.373 9.905,-1.373 9.905,-1.373 9.906,-1.373 9.905,-1.374 9.905,-1.373 9.906,-1.373 9.905,-1.373 9.905,-1.373 9.905,-1.373 9.906,-1.373 9.905,-1.373 9.905,-1.373 9.905,-1.373 9.906,-1.373 9.905,-1.373 9.905,-1.373 9.906,-1.373 9.905,-1.373 9.905,-1.373 9.906,-1.373 9.905,-1.373 9.905,-1.373 9.905,-1.373 9.906,-1.373 9.905,-1.374 9.905,-1.373 9.905,-1.373 9.906,-1.373 9.905,-1.373 9.905,-1.373 9.906,-1.373 9.905,-1.373 9.905,-1.373 9.906,-1.373 9.905,-1.373 9.905,-1.373 9.905,-1.373 9.906,-1.373 9.905,-1.373 9.905,-1.373 9.906,-1.373 9.905,-1.373 9.905,-1.373 9.905,-1.374 9.906,-1.373 9.905,-1.373 9.905,-1.373 9.905,-1.373 9.906,-1.373 9.905,-1.373 9.906,-1.373 9.905,-1.373 9.905,-1.373 9.905,-1.373 9.906,-1.373 9.905,-1.373 9.905,-1.373 9.905,-1.373 9.906,-1.373 9.905,-1.373 9.905,-1.373 9.906,-1.373 9.905,-1.373 9.905,-1.373 9.906,-1.374 9.905,-1.373 9.905,-1.373 9.905,-1.373 9.905,-1.373 9.906,-1.373 9.905,-1.373 9.906,-1.373 9.905,-1.373 9.905,-1.373 9.905,-1.373 9.906,-1.373 9.905,-1.373 9.905,-1.373 9.905,-1.373 9.906,-1.373 9.905,-1.373 9.906,-1.373 9.905,-1.373 9.905,-1.374 9.905,-1.373 9.906,-1.373 9.905,-1.373 9.905,-1.373 9.905,-1.373 9.906,-1.373 9.905,-1.373 9.905,-1.373 9.906,-1.373 9.905,-1.373 9.905,-1.373 9.905,-1.373 9.906,-1.373 9.905,-1.373 9.905,-1.373 9.906,-1.373 9.905,-1.373 9.905,-1.373 9.906,-1.373 9.905,-1.374 9.905,-1.373 9.905,-1.373 9.906,-1.373 9.905,-1.373 9.905,-1.373 9.905,-1.373 9.906,-1.373 9.905,-1.373 9.905,-1.373 9.906,-1.373 9.905,-1.373 9.905,-1.373 9.906,-1.373 9.905,-1.373 9.905,-1.373 9.905,-1.373 9.905,-1.373 9.906,-1.373 9.905,-1.373 9.905,-1.374 9.906,-1.373 9.905,-1.373 9.905,-1.373 9.906,-1.373 9.905,-1.373 9.905,-1.373 9.905,-1.373 9.906,-1.373 9.905,-1.373 9.905,-1.373 9.906,-1.373 9.905,-1.373 9.905,-1.373 9.906,-1.373 9.905,-1.373 9.905,-1.373 9.905,-1.373 9.906,-1.373 9.905,-1.373 9.905,-1.374 9.905,-1.373 9.906,-1.373 30.528,-4.231"
         id="path917"
         style="stroke:none;stroke-width:7.55906;stroke-linecap:butt;stroke-linejoin:round;stroke-miterlimit:4;stroke-dasharray:none;filter:url(#filter1322)" />
      <path
         fill="none"
         stroke-width="3.0"
         stroke-linecap="butt"
         stroke-opacity="1"
         stroke="rgb(0, 0, 0)"
         stroke-linejoin="miter"
         d="m 3396.974,2080.606 0.011,-10 0.012,-10 0.011,-10 0.011,-10 0.012,-10 0.011,-10 0.011,-10 0.011,-10 0.012,-10 0.011,-10 0.012,-10 0.011,-10 0.011,-10 0.012,-10 0.011,-10 0.011,-10 0.012,-10 0.011,-10 0.011,-10 0.012,-10 0.011,-10 0.011,-10 0.012,-10 0.011,-10 0.011,-10 0.012,-10 0.011,-10 0.011,-10 0.011,-10 0.012,-9.999 0.011,-10 0.012,-10 0.011,-10 0.011,-10 0.012,-10 0.011,-10 0.011,-10 0.012,-10 0.011,-10 0.011,-10 0.011,-10 0.012,-10 0.011,-10 0.012,-10 0.011,-10 0.011,-10 0.012,-10 0.011,-10 0.011,-10 0.012,-10 0.011,-10 0.011,-10 0.012,-10 0.011,-10 0.011,-10 0.012,-10 0.011,-10 0.011,-10 0.012,-10 0.011,-10 0.011,-10 0.012,-10 0.011,-10 0.011,-10 0.012,-10 0.011,-10 0.011,-10 0.012,-10 0.011,-10 0.011,-10 0.012,-10 0.011,-10 0.011,-10 0.011,-10 0.012,-10 0.011,-10 0.012,-10 0.011,-10 0.011,-10 0.012,-10 0.011,-10 0.011,-10 0.012,-10 0.011,-10 0.011,-10 0.012,-10 0.011,-10 0.011,-10 0.012,-10 0.011,-10 0.011,-10 0.012,-10 0.011,-10 0.011,-10 0.012,-10 0.011,-10 0.011,-10 0.012,-10 0.011,-10 0.011,-10 0.012,-10 0.011,-10 0.011,-10 0.012,-10 0.011,-10 0.011,-10 0.012,-10 0.011,-10 0.011,-10 0.012,-10 0.011,-10 0.011,-10 0.012,-10 0.011,-10 0.011,-10 0.012,-10 0.011,-10 0.011,-10 0.012,-10 0.011,-10 0.011,-10 0.012,-10 0.011,-10 0.011,-10 0.012,-10 0.011,-10 0.011,-10 0.012,-10 0.011,-10 0.011,-10 0.012,-10 0.011,-10 0.011,-10 0.012,-10 0.011,-10 0.011,-10 0.012,-10 0.011,-10 0.011,-10 0.012,-10 0.011,-10 0.011,-10 0.012,-10 0.011,-10 0.011,-10 0.012,-10 0.011,-10 0.011,-10 0.012,-10 0.011,-10 0.011,-10 0.012,-10 0.011,-10 0.011,-10 0.012,-10 0.011,-10 0.011,-10 0.012,-10 0.011,-10 0.011,-10 0.012,-10 0.011,-10 0.011,-10 0.012,-10 0.011,-10 0.011,-10 0.012,-10 0.011,-9.999 0.011,-10.001 0.012,-10 0.011,-9.999 0.011,-10 0.012,-10.001 0.011,-10 0.011,-9.999 0.012,-10 0.011,-10.001 0.011,-9.999 0.012,-10 0.011,-10 0.011,-10 0.012,-10 0.011,-10 0.011,-10 0.012,-10 0.011,-10 0.011,-10 0.012,-10 0.011,-10 0.011,-10 0.012,-10 0.011,-10 0.011,-10 0.012,-10 0.011,-10 0.011,-10 0.012,-10 0.011,-10 0.011,-10 0.012,-10 0.011,-10 0.011,-10 0.012,-10 0.028,-25.446"
         id="path919"
         style="stroke:none;stroke-width:7.55906;stroke-linecap:butt;stroke-linejoin:round;stroke-miterlimit:4;stroke-dasharray:none;filter:url(#filter1318)" />
    </g>
    <g
       inkscape:groupmode="layer"
       id="layer3"
       inkscape:label="trace">
      <path
         fill="none"
         stroke-width="3.0"
         stroke-linecap="butt"
         stroke-opacity="1.0"
         stroke="rgb(0, 0, 0)"
         stroke-linejoin="miter"
         d=" M 2339.704, 1435.946 2343.199, 1426.576 2346.693, 1417.207 2350.188, 1407.837 2353.683, 1398.468 2357.177, 1389.098 2360.672, 1379.729 2364.166, 1370.359 2367.661, 1360.989 2371.155, 1351.620 2374.650, 1342.250 2378.145, 1332.881 2381.639, 1323.511 2385.134, 1314.142 2388.628, 1304.772 2392.123, 1295.403 2395.617, 1286.033 2399.112, 1276.664 2402.606, 1267.294 2406.101, 1257.925 2409.595, 1248.555 2413.090, 1239.186 2416.585, 1229.816 2420.079, 1220.447 2423.574, 1211.077 2427.068, 1201.707 2430.563, 1192.338 2434.057, 1182.968 2437.552, 1173.599 2441.046, 1164.229 2444.541, 1154.860 2448.036, 1145.490 2451.530, 1136.121 2455.025, 1126.751 2458.519, 1117.382 2462.014, 1108.012 2465.509, 1098.643 2469.003, 1089.273 2472.498, 1079.904 2475.992, 1070.534 2479.487, 1061.165 2482.981, 1051.795 2486.476, 1042.425 2489.970, 1033.056 2493.465, 1023.686 2496.959, 1014.317 2500.454, 1004.947 2503.948, 995.578 2507.443, 986.208 2510.938, 976.839 2514.432, 967.469 2517.927, 958.100 2521.421, 948.730 2524.916, 939.361 2528.410, 929.991 2531.905, 920.622 2535.400, 911.252 2538.894, 901.883 2542.389, 892.513 2545.883, 883.143 2549.378, 873.774 2552.872, 864.404 2556.367, 855.035 2559.862, 845.665 2563.356, 836.296 2566.851, 826.926 2570.345, 817.557 2573.840, 808.187 2577.334, 798.818 2580.829, 789.448 2584.323, 780.079 2587.818, 770.709 2591.312, 761.340 2594.807, 751.970 2598.302, 742.601 2601.796, 733.231 2605.291, 723.862 2608.785, 714.492 2612.280, 705.122 2615.774, 695.753 2619.269, 686.383 2622.764, 677.014 2626.258, 667.644 2631.590, 653.349 2641.542, 652.370 2651.494, 651.391 2661.446, 650.411 2671.398, 649.432 2681.350, 648.453 2691.302, 647.474 2701.253, 646.494 2706.637, 645.965 2710.557, 655.164 2714.477, 664.364 2718.397, 673.563 2722.317, 682.763 2726.238, 691.963 2730.157, 701.162 2734.078, 710.362 2737.998, 719.562 2741.918, 728.761 2745.838, 737.961 2749.758, 747.160 2753.678, 756.360 2757.598, 765.560 2761.518, 774.759 2765.438, 783.959 2769.358, 793.159 2773.278, 802.358 2777.198, 811.558 2781.119, 820.757 2785.039, 829.957 2788.959, 839.157 2792.879, 848.356 2796.799, 857.556 2800.719, 866.755 2804.639, 875.955 2808.559, 885.155 2812.479, 894.354 2816.399, 903.554 2820.319, 912.754 2824.240, 921.953 2828.159, 931.153 2832.080, 940.352 2836.000, 949.552 2839.920, 958.752 2843.840, 967.951 2847.760, 977.151 2851.680, 986.351 2855.600, 995.550 2859.520, 1004.750 2863.440, 1013.949 2867.360, 1023.149 2871.280, 1032.349 2875.200, 1041.548 2879.121, 1050.748 2883.041, 1059.948 2886.961, 1069.147 2890.881, 1078.347 2894.801, 1087.546 2898.721, 1096.746 2902.641, 1105.946 2906.561, 1115.145 2910.481, 1124.345 2914.401, 1133.544 2918.321, 1142.744 2922.241, 1151.944 2926.161, 1161.143 2930.082, 1170.343 2934.001, 1179.543 2937.922, 1188.742 2941.842, 1197.942 2945.762, 1207.141 2949.682, 1216.341 2953.602, 1225.541 2957.522, 1234.740 2961.442, 1243.940 2965.362, 1253.140 2969.282, 1262.339 2973.202, 1271.539 2977.122, 1280.738 2981.042, 1289.938 2984.963, 1299.138 2988.883, 1308.337 2992.803, 1317.537 2996.723, 1326.736 3000.643, 1335.936 3004.563, 1345.136 3008.483, 1354.335 3012.403, 1363.535 3016.323, 1372.735 3020.243, 1381.934 3024.163, 1391.134 3028.083, 1400.333 3032.003, 1409.533 3035.924, 1418.733 3039.844, 1427.932 3043.764, 1437.132 3047.684, 1446.332 3051.604, 1455.531 3055.524, 1464.731 3059.444, 1473.930 3063.364, 1483.130 3067.284, 1492.330 3072.051, 1503.516 3062.093, 1502.597 3052.135, 1501.678 3042.177, 1500.759 3032.220, 1499.841 3022.262, 1498.922 3012.304, 1498.003 3002.347, 1497.084 2992.389, 1496.166 2982.431, 1495.247 2972.474, 1494.328 2962.516, 1493.409 2952.558, 1492.491 2945.433, 1491.833 2941.542, 1482.621 2937.650, 1473.409 2933.759, 1464.198 2929.868, 1454.986 2925.977, 1445.774 2922.085, 1436.562 2918.194, 1427.350 2914.303, 1418.138 2910.412, 1408.926 2906.521, 1399.714 2902.629, 1390.503 2898.738, 1381.291 2894.847, 1372.079 2890.956, 1362.867 2887.064, 1353.655 2883.173, 1344.443 2879.282, 1335.231 2875.391, 1326.020 2871.500, 1316.808 2867.608, 1307.596 2863.717, 1298.384 2859.826, 1289.172 2855.935, 1279.960 2852.043, 1270.748 2848.152, 1261.536 2844.261, 1252.325 2840.370, 1243.113 2836.191, 1233.219 2826.197, 1232.855 2816.204, 1232.491 2806.211, 1232.127 2796.217, 1231.763 2786.224, 1231.399 2776.230, 1231.035 2766.237, 1230.671 2756.244, 1230.307 2746.250, 1229.944 2736.257, 1229.580 2726.264, 1229.216 2716.270, 1228.852 2706.277, 1228.488 2696.283, 1228.124 2686.290, 1227.760 2676.297, 1227.396 2666.303, 1227.032 2656.310, 1226.668 2646.317, 1226.304 2636.323, 1225.940 2626.330, 1225.576 2616.336, 1225.212 2606.343, 1224.848 2596.350, 1224.484 2586.356, 1224.120 2576.363, 1223.756 2566.370, 1223.392 2556.376, 1223.028 2546.383, 1222.664 2536.389, 1222.300 2526.396, 1221.936 2519.971, 1221.702 2516.395, 1231.041 2512.818, 1240.379 2509.242, 1249.718 2505.665, 1259.057 2502.088, 1268.395 2498.512, 1277.734 2494.935, 1287.072 2491.359, 1296.411 2487.782, 1305.749 2484.205, 1315.088 2480.629, 1324.426 2477.052, 1333.765 2473.476, 1343.103 2469.899, 1352.442 2466.322, 1361.780 2462.746, 1371.119 2459.169, 1380.457 2455.593, 1389.796 2452.016, 1399.134 2448.439, 1408.473 2444.863, 1417.811 2441.286, 1427.150 2437.709, 1436.488 2434.565, 1444.698 2424.608, 1443.779 2414.650, 1442.860 2404.692, 1441.942 2394.734, 1441.023 2384.777, 1440.104 2374.819, 1439.185 2364.861, 1438.267 2354.904, 1437.348 2344.946, 1436.429 2339.704, 1435.946 "
         id="path921"
         style="fill:#2aecfb;fill-opacity:1;stroke-width:3.77952756;stroke-miterlimit:4;stroke-dasharray:none;stroke-linejoin:round;stroke-linecap:butt;stroke:#000000;stroke-opacity:1;filter:url(#filter2028)" />
      <path
         fill="none"
         stroke-width="3.0"
         stroke-linecap="butt"
         stroke-opacity="1.0"
         stroke="rgb(0, 0, 0)"
         stroke-linejoin="miter"
         d=" M 1814.347, 1387.474 1814.346, 1377.474 1814.345, 1367.474 1814.345, 1357.474 1814.344, 1347.474 1814.343, 1337.474 1814.343, 1327.474 1814.342, 1317.474 1814.341, 1307.474 1814.341, 1297.474 1814.340, 1287.474 1814.339, 1277.474 1814.339, 1267.474 1814.338, 1257.474 1814.338, 1247.474 1814.337, 1237.474 1814.336, 1227.474 1814.336, 1217.474 1814.335, 1207.474 1814.334, 1197.474 1814.334, 1187.474 1814.333, 1177.474 1814.332, 1167.474 1814.332, 1157.474 1814.331, 1147.474 1814.330, 1137.474 1814.330, 1127.474 1814.329, 1117.474 1814.328, 1107.474 1814.328, 1097.474 1814.327, 1087.474 1814.327, 1077.474 1814.326, 1067.474 1814.325, 1057.474 1814.325, 1047.474 1814.324, 1037.474 1814.323, 1027.474 1814.323, 1017.474 1814.322, 1007.474 1814.321, 997.474 1814.321, 987.474 1814.320, 977.474 1814.319, 967.474 1814.319, 957.474 1814.318, 947.474 1814.318, 937.474 1814.317, 927.474 1814.316, 917.474 1814.316, 907.474 1814.315, 897.474 1814.314, 887.474 1814.314, 877.474 1814.313, 867.474 1814.312, 857.474 1814.312, 847.474 1814.311, 837.474 1814.310, 827.474 1814.310, 817.474 1814.309, 807.474 1814.308, 797.474 1814.308, 787.474 1814.307, 777.474 1814.307, 767.474 1814.306, 757.474 1814.305, 747.474 1814.305, 737.582 1824.258, 736.614 1834.211, 735.646 1844.164, 734.677 1854.117, 733.709 1864.070, 732.741 1874.023, 731.772 1883.989, 730.803 1883.989, 740.803 1883.989, 750.803 1883.989, 760.803 1883.989, 770.803 1883.989, 780.803 1883.990, 790.803 1883.990, 800.803 1883.990, 810.803 1883.990, 820.803 1883.990, 830.803 1883.990, 840.803 1883.990, 850.803 1883.990, 860.803 1883.990, 870.803 1883.991, 880.803 1883.991, 890.803 1883.991, 900.803 1883.991, 910.803 1883.991, 920.803 1883.991, 930.803 1883.991, 940.803 1883.991, 950.803 1883.991, 960.803 1883.992, 970.803 1883.992, 980.803 1883.992, 990.803 1883.992, 1000.803 1883.992, 1010.803 1883.992, 1019.653 1893.991, 1019.505 1903.990, 1019.358 1913.989, 1019.211 1923.988, 1019.064 1933.987, 1018.917 1943.986, 1018.770 1953.985, 1018.623 1963.984, 1018.475 1973.982, 1018.328 1983.981, 1018.181 1993.980, 1018.034 2003.979, 1017.887 2013.978, 1017.740 2023.977, 1017.593 2033.976, 1017.445 2043.975, 1017.298 2053.974, 1017.151 2063.973, 1017.004 2073.972, 1016.857 2083.970, 1016.710 2093.969, 1016.563 2103.968, 1016.416 2113.967, 1016.268 2123.966, 1016.121 2133.965, 1015.974 2143.964, 1015.827 2153.963, 1015.680 2163.962, 1015.533 2173.961, 1015.385 2184.914, 1015.224 2184.917, 1005.224 2184.919, 995.224 2184.921, 985.224 2184.923, 975.224 2184.925, 965.224 2184.927, 955.224 2184.929, 945.224 2184.932, 935.224 2184.934, 925.224 2184.936, 915.224 2184.938, 905.224 2184.940, 895.224 2184.942, 885.224 2184.945, 875.224 2184.947, 865.224 2184.949, 855.224 2184.951, 845.224 2184.953, 835.224 2184.955, 825.224 2184.958, 815.224 2184.960, 805.224 2184.962, 795.224 2184.964, 785.224 2184.966, 775.224 2184.968, 765.224 2184.970, 755.224 2184.973, 745.224 2184.975, 735.224 2184.977, 725.224 2184.979, 715.224 2184.981, 705.224 2184.982, 701.521 2194.935, 700.552 2204.888, 699.584 2214.841, 698.616 2224.794, 697.647 2234.747, 696.679 2244.700, 695.711 2254.653, 694.742 2264.606, 693.774 2270.737, 693.178 2270.734, 703.178 2270.732, 713.178 2270.729, 723.178 2270.726, 733.178 2270.723, 743.178 2270.720, 753.178 2270.718, 763.178 2270.715, 773.178 2270.712, 783.178 2270.709, 793.178 2270.706, 803.178 2270.704, 813.178 2270.701, 823.178 2270.698, 833.178 2270.695, 843.178 2270.692, 853.178 2270.690, 863.178 2270.687, 873.178 2270.684, 883.178 2270.681, 893.178 2270.678, 903.178 2270.676, 913.178 2270.673, 923.178 2270.670, 933.178 2270.667, 943.178 2270.664, 953.178 2270.662, 963.178 2270.659, 973.178 2270.656, 983.178 2270.653, 993.178 2270.650, 1003.178 2270.647, 1013.178 2270.645, 1023.178 2270.642, 1033.178 2270.639, 1043.178 2270.636, 1053.178 2270.634, 1063.178 2270.631, 1073.178 2270.628, 1083.178 2270.625, 1093.178 2270.622, 1103.178 2270.619, 1113.178 2270.617, 1123.178 2270.614, 1133.178 2270.611, 1143.178 2270.608, 1153.178 2270.605, 1163.178 2270.603, 1173.178 2270.600, 1183.178 2270.597, 1193.178 2270.594, 1203.178 2270.591, 1213.178 2270.589, 1223.178 2270.586, 1233.178 2270.583, 1243.178 2270.580, 1253.178 2270.577, 1263.178 2270.575, 1273.178 2270.572, 1283.178 2270.569, 1293.178 2270.566, 1303.178 2270.563, 1313.178 2270.561, 1323.178 2270.558, 1333.178 2270.555, 1343.178 2270.552, 1353.178 2270.549, 1363.178 2270.547, 1373.178 2270.544, 1383.178 2270.541, 1393.178 2270.538, 1403.178 2270.535, 1413.178 2270.531, 1429.563 2260.573, 1428.645 2250.615, 1427.726 2240.658, 1426.807 2230.700, 1425.888 2220.742, 1424.970 2210.784, 1424.051 2200.827, 1423.132 2190.869, 1422.213 2184.827, 1421.656 2184.829, 1411.656 2184.831, 1401.656 2184.833, 1391.656 2184.835, 1381.656 2184.838, 1371.656 2184.840, 1361.656 2184.842, 1351.656 2184.844, 1341.656 2184.846, 1331.656 2184.848, 1321.656 2184.851, 1311.656 2184.853, 1301.656 2184.855, 1291.656 2184.857, 1281.656 2184.859, 1271.656 2184.861, 1261.656 2184.864, 1251.656 2184.866, 1241.656 2184.868, 1231.656 2184.870, 1221.656 2184.872, 1211.656 2184.874, 1201.656 2184.876, 1191.656 2184.879, 1181.656 2184.881, 1171.656 2184.883, 1161.656 2184.885, 1151.656 2184.887, 1141.656 2184.889, 1131.656 2184.892, 1121.656 2184.894, 1111.656 2184.895, 1108.145 2174.895, 1108.047 2164.896, 1107.950 2154.896, 1107.853 2144.896, 1107.755 2134.897, 1107.658 2124.897, 1107.560 2114.898, 1107.463 2104.898, 1107.366 2094.899, 1107.268 2084.899, 1107.171 2074.900, 1107.073 2064.900, 1106.976 2054.901, 1106.879 2044.901, 1106.781 2034.902, 1106.684 2024.902, 1106.586 2014.902, 1106.489 2004.903, 1106.391 1994.903, 1106.294 1984.904, 1106.197 1974.904, 1106.099 1964.905, 1106.002 1954.905, 1105.904 1944.906, 1105.807 1934.906, 1105.710 1924.907, 1105.612 1914.907, 1105.515 1904.908, 1105.417 1894.908, 1105.320 1883.993, 1105.214 1883.994, 1115.214 1883.994, 1125.214 1883.994, 1135.214 1883.994, 1145.214 1883.994, 1155.214 1883.994, 1165.214 1883.994, 1175.214 1883.994, 1185.214 1883.994, 1195.214 1883.995, 1205.214 1883.995, 1215.214 1883.995, 1225.214 1883.995, 1235.214 1883.995, 1245.214 1883.995, 1255.214 1883.995, 1265.214 1883.995, 1275.214 1883.995, 1285.214 1883.996, 1295.214 1883.996, 1305.214 1883.996, 1315.214 1883.996, 1325.214 1883.996, 1335.214 1883.996, 1345.214 1883.996, 1355.214 1883.996, 1365.214 1883.997, 1375.214 1883.997, 1385.214 1883.997, 1393.900 1874.039, 1392.981 1864.081, 1392.062 1854.124, 1391.144 1844.166, 1390.225 1834.208, 1389.306 1824.250, 1388.387 1814.347, 1387.474 "
         id="path925"
         style="fill:#2aecfb;fill-opacity:1;stroke-width:3.77952756;stroke-miterlimit:4;stroke-dasharray:none;stroke-linejoin:round;stroke-linecap:butt;stroke:#000000;stroke-opacity:1;filter:url(#filter2024)" />
      <path
         fill="none"
         stroke-width="3.0"
         stroke-linecap="butt"
         stroke-opacity="1.0"
         stroke="rgb(0, 0, 0)"
         stroke-linejoin="miter"
         d=" M 1307.936, 1340.750 1307.931, 1330.750 1307.927, 1320.750 1307.922, 1310.750 1307.918, 1300.750 1307.913, 1290.750 1307.909, 1280.750 1307.904, 1270.750 1307.900, 1260.750 1307.895, 1250.750 1307.891, 1240.750 1307.886, 1230.750 1307.882, 1220.750 1307.877, 1210.750 1307.873, 1200.750 1307.869, 1190.750 1307.864, 1180.750 1307.859, 1170.750 1307.855, 1160.750 1307.851, 1150.750 1307.846, 1140.750 1307.842, 1130.750 1307.837, 1120.750 1307.833, 1110.750 1307.828, 1100.750 1307.824, 1090.750 1307.819, 1080.750 1307.815, 1070.750 1307.810, 1060.750 1307.806, 1050.750 1307.801, 1040.750 1307.797, 1030.750 1307.792, 1020.750 1307.788, 1010.750 1307.783, 1000.750 1307.779, 990.750 1307.774, 980.750 1307.770, 970.750 1307.766, 960.750 1307.761, 950.750 1307.757, 940.750 1307.752, 930.750 1307.748, 920.750 1307.743, 910.750 1307.739, 900.750 1307.734, 890.750 1307.730, 880.750 1307.725, 870.750 1307.721, 860.750 1307.716, 850.750 1307.712, 840.750 1307.707, 830.750 1307.703, 820.750 1307.698, 810.750 1307.694, 800.750 1307.688, 786.869 1317.641, 785.901 1327.594, 784.932 1337.547, 783.964 1347.500, 782.996 1357.453, 782.027 1358.148, 781.960 1358.152, 791.960 1358.156, 801.960 1358.161, 811.960 1358.165, 821.960 1358.169, 831.960 1358.173, 841.960 1358.177, 851.960 1358.181, 861.960 1358.185, 871.960 1358.189, 881.960 1358.193, 891.960 1358.197, 901.960 1358.202, 911.960 1358.206, 921.960 1358.210, 931.960 1358.214, 941.960 1358.218, 951.960 1358.222, 961.960 1358.226, 971.960 1358.230, 981.960 1358.234, 991.960 1358.238, 1001.960 1358.243, 1011.960 1358.247, 1021.960 1358.251, 1031.960 1358.255, 1041.960 1358.259, 1051.960 1358.263, 1061.960 1358.267, 1071.960 1358.271, 1081.960 1358.275, 1091.960 1358.279, 1101.960 1358.283, 1111.960 1358.288, 1121.960 1358.292, 1131.960 1358.296, 1141.960 1358.300, 1151.960 1358.304, 1161.960 1358.308, 1171.960 1358.312, 1181.960 1358.316, 1191.960 1358.320, 1201.960 1358.324, 1211.960 1358.328, 1221.960 1358.333, 1231.960 1358.337, 1241.960 1358.341, 1251.960 1358.345, 1261.960 1358.349, 1271.960 1358.353, 1281.960 1358.357, 1291.960 1358.361, 1301.960 1358.365, 1311.960 1358.370, 1321.960 1358.374, 1331.960 1358.379, 1345.404 1348.421, 1344.485 1338.464, 1343.566 1328.506, 1342.648 1318.548, 1341.729 1308.591, 1340.810 1307.936, 1340.750 "
         id="path927"
         style="fill:#2aecfb;fill-opacity:1;stroke-width:3.77952756;stroke-miterlimit:4;stroke-dasharray:none;stroke-linejoin:round;stroke-linecap:butt;stroke:#000000;stroke-opacity:1;filter:url(#filter2020)" />
      <path
         fill="none"
         stroke-width="3.0"
         stroke-linecap="butt"
         stroke-opacity="1.0"
         stroke="rgb(0, 0, 0)"
         stroke-linejoin="miter"
         d=" M 1047.620, 812.170 1057.573, 811.201 1067.526, 810.233 1077.479, 809.265 1087.432, 808.297 1097.385, 807.328 1107.338, 806.360 1117.291, 805.392 1127.244, 804.423 1133.477, 803.817 1143.476, 803.713 1149.239, 803.652 1159.083, 805.416 1163.616, 806.228 1172.921, 809.890 1176.595, 811.336 1185.013, 816.734 1188.168, 818.757 1195.473, 825.587 1198.333, 828.261 1204.444, 836.177 1207.092, 839.607 1211.493, 848.587 1215.893, 857.567 1220.293, 866.547 1220.428, 866.821 1223.302, 876.399 1225.034, 882.171 1227.011, 891.974 1228.293, 898.328 1229.445, 908.261 1230.229, 915.023 1230.609, 925.016 1230.873, 931.985 1230.636, 941.983 1230.549, 945.631 1229.780, 955.601 1229.557, 958.497 1228.192, 968.404 1227.890, 970.599 1225.864, 980.392 1225.542, 981.951 1222.795, 991.567 1222.508, 992.570 1218.989, 1001.930 1218.785, 1002.471 1214.459, 1011.487 1214.370, 1011.673 1209.261, 1020.193 1203.458, 1028.052 1196.960, 1035.269 1189.771, 1041.864 1181.892, 1047.860 1181.893, 1049.414 1191.233, 1052.986 1193.367, 1053.802 1202.122, 1058.634 1204.116, 1059.733 1212.135, 1065.707 1214.085, 1067.159 1221.261, 1074.123 1223.220, 1076.024 1229.490, 1083.814 1231.468, 1086.271 1236.809, 1094.725 1238.775, 1097.838 1243.195, 1106.808 1245.091, 1110.658 1248.615, 1120.017 1250.365, 1124.663 1253.031, 1134.302 1254.546, 1139.779 1256.398, 1149.606 1257.589, 1155.927 1258.671, 1165.868 1259.449, 1173.026 1259.802, 1183.020 1260.084, 1190.993 1259.702, 1200.985 1259.437, 1207.915 1258.265, 1217.846 1257.431, 1224.912 1255.419, 1234.708 1253.994, 1241.644 1251.070, 1251.207 1249.062, 1257.774 1245.134, 1266.970 1242.573, 1272.964 1237.545, 1281.608 1234.475, 1286.884 1228.268, 1294.724 1224.720, 1299.206 1217.319, 1305.932 1213.267, 1309.614 1204.772, 1314.890 1200.086, 1317.801 1190.738, 1321.352 1185.153, 1323.473 1175.299, 1325.172 1168.454, 1326.352 1158.485, 1325.559 1148.517, 1324.766 1138.548, 1323.972 1128.580, 1323.179 1118.611, 1322.386 1108.643, 1321.592 1098.674, 1320.799 1088.706, 1320.006 1078.738, 1319.212 1068.769, 1318.419 1058.801, 1317.626 1047.945, 1316.762 1047.939, 1306.762 1047.932, 1296.762 1047.926, 1286.762 1047.920, 1276.762 1047.913, 1266.762 1047.907, 1256.762 1047.900, 1246.762 1047.894, 1236.762 1047.887, 1226.762 1047.881, 1216.762 1047.875, 1206.762 1047.868, 1196.762 1047.862, 1186.762 1047.855, 1176.762 1047.849, 1166.762 1047.842, 1156.762 1047.836, 1146.762 1047.829, 1136.762 1047.823, 1126.762 1047.817, 1116.762 1047.810, 1106.762 1047.804, 1096.762 1047.797, 1086.762 1047.791, 1076.762 1047.784, 1066.762 1047.778, 1056.762 1047.771, 1046.762 1047.765, 1036.762 1047.759, 1026.762 1047.752, 1016.762 1047.746, 1006.762 1047.739, 996.762 1047.733, 986.762 1047.726, 976.762 1047.720, 966.762 1047.713, 956.762 1047.707, 946.762 1047.701, 936.762 1047.694, 926.762 1047.688, 916.762 1047.681, 906.762 1047.675, 896.762 1047.668, 886.762 1047.662, 876.762 1047.655, 866.762 1047.649, 856.762 1047.642, 846.762 1047.636, 836.762 1047.630, 826.762 1047.620, 812.170 "
         id="path929"
         style="fill:#2aecfb;fill-opacity:1;stroke-width:3.77952756;stroke-miterlimit:4;stroke-dasharray:none;stroke-linejoin:round;stroke-linecap:butt;stroke:#000000;stroke-opacity:1;filter:url(#filter2016)" />
      <path
         fill="none"
         stroke-width="3"
         stroke-linecap="butt"
         stroke-opacity="1"
         stroke="#000000"
         stroke-linejoin="miter"
         d="m 765.90305,1299.7952 2.154,-9.765 2.155,-9.765 2.155,-9.765 2.155,-9.765 2.155,-9.765 2.155,-9.765 2.155,-9.765 2.155,-9.765 2.155,-9.765 2.155,-9.765 2.155,-9.765 2.155,-9.765 2.154,-9.765 2.155,-9.765 2.155,-9.765 2.155,-9.765 2.155,-9.765 2.155,-9.766 2.155,-9.765 2.155,-9.765 2.155,-9.765 2.155,-9.765 2.155,-9.765 2.155,-9.765 2.154,-9.765 2.155,-9.765 2.155,-9.765 2.155,-9.765 2.155,-9.765 2.155,-9.765 2.155,-9.76502 2.155,-9.765 2.155,-9.765 2.155,-9.765 2.155,-9.766 2.155,-9.765 2.154,-9.765 2.155,-9.765 2.155,-9.765 2.155,-9.765 2.155,-9.765 2.155,-9.765 2.155,-9.765 2.155,-9.765 2.155,-9.765 2.155,-9.765 2.155,-9.765 1.219,-5.526 9.952,-0.979 9.952,-0.979 5.632,-0.555 2.375,9.714 2.376,9.714 2.375,9.714 2.376,9.714 2.375,9.713 2.376,9.714 2.375,9.714 2.376,9.714 2.375,9.713 2.376,9.714 2.375,9.714 2.376,9.714 2.375,9.713 2.376,9.714 2.375,9.714 2.375,9.714 2.376,9.713 2.375,9.71402 2.376,9.714 2.375,9.714 2.376,9.713 2.375,9.714 2.376,9.714 2.375,9.714 2.376,9.713 2.375,9.714 2.376,9.714 2.375,9.714 2.376,9.713 2.375,9.714 2.376,9.714 2.375,9.714 2.376,9.714 2.375,9.713 2.376,9.714 2.375,9.714 2.375,9.714 2.376,9.713 2.375,9.714 2.376,9.714 2.375,9.714 2.376,9.713 2.375,9.714 2.376,9.714 2.37495,9.714 2.376,9.713 2.375,9.714 2.376,9.714 2.375,9.714 3.396,13.888 -9.957,-0.919 -9.95795,-0.919 -9.958,-0.919 -9.957,-0.918 -0.56,-0.052 -2.381,-9.712 -2.382,-9.713 -2.381,-9.712 -2.382,-9.712 -2.381,-9.712 -2.382,-9.713 -2.382,-9.712 -2.381,-9.712 -2.382,-9.712 -2.381,-9.713 -2.382,-9.712 -2.381,-9.712 -2.382,-9.713 -2.381,-9.712 -2.454,-10.008 -9.994,-0.364 -9.993,-0.364 -9.994,-0.364 -9.993,-0.364 -9.993,-0.364 -9.994,-0.364 -9.993,-0.364 -9.993,-0.364 -9.994,-0.364 -9.993,-0.364 -7.532,-0.274 -2.189,9.757 -2.19,9.758 -2.189,9.757 -2.189,9.758 -2.189,9.757 -2.189,9.758 -2.189,9.757 -2.189,9.758 -2.189,9.757 -2.189,9.757 -2.189,9.758 -2.189,9.757 -2.189,9.758 -1.583,7.057 -9.958,-0.918 -9.958,-0.919 -9.957,-0.919 -4.265,-0.394"
         id="path935"
         style="fill:#2aecfb;fill-opacity:1;stroke-width:3.77952756;stroke-miterlimit:4;stroke-dasharray:none;stroke-linejoin:round;stroke-linecap:butt;stroke:#000000;stroke-opacity:1;filter:url(#filter2012)" />
      <path
         fill="none"
         stroke-width="3.0"
         stroke-linecap="butt"
         stroke-opacity="1.0"
         stroke="rgb(0, 0, 0)"
         stroke-linejoin="miter"
         d=" M 1407.701, 851.083 1407.697, 841.083 1407.693, 831.083 1407.689, 821.083 1407.686, 811.083 1407.682, 801.083 1407.678, 791.083 1407.674, 781.083 1407.673, 777.142 1417.626, 776.173 1427.579, 775.205 1437.532, 774.237 1447.485, 773.268 1457.438, 772.300 1467.391, 771.332 1477.344, 770.364 1487.297, 769.395 1497.250, 768.427 1507.203, 767.459 1517.156, 766.490 1527.109, 765.522 1537.062, 764.554 1547.015, 763.586 1556.968, 762.617 1566.921, 761.649 1576.874, 760.681 1586.827, 759.712 1596.780, 758.744 1606.733, 757.776 1616.686, 756.808 1626.639, 755.839 1636.592, 754.871 1646.545, 753.903 1656.498, 752.934 1666.451, 751.966 1676.404, 750.998 1686.357, 750.030 1696.310, 749.061 1706.263, 748.093 1716.216, 747.125 1726.169, 746.156 1736.122, 745.188 1746.075, 744.220 1751.367, 743.705 1751.368, 753.705 1751.369, 763.705 1751.370, 773.705 1751.371, 783.705 1751.372, 793.705 1751.373, 803.705 1751.374, 813.705 1751.376, 823.705 1751.376, 826.058 1741.402, 826.784 1731.429, 827.510 1721.455, 828.236 1711.481, 828.963 1701.508, 829.689 1691.534, 830.415 1681.561, 831.141 1671.587, 831.868 1661.614, 832.594 1651.640, 833.320 1641.666, 834.046 1631.693, 834.773 1621.719, 835.499 1611.745, 836.225 1601.772, 836.951 1600.026, 837.078 1600.029, 847.078 1600.031, 857.078 1600.033, 867.078 1600.036, 877.078 1600.038, 887.078 1600.040, 897.078 1600.042, 907.078 1600.045, 917.078 1600.047, 927.078 1600.049, 937.078 1600.051, 947.078 1600.054, 957.078 1600.056, 967.078 1600.058, 977.078 1600.060, 987.078 1600.063, 997.078 1600.065, 1007.078 1600.067, 1017.078 1600.069, 1027.078 1600.072, 1037.078 1600.074, 1047.078 1600.076, 1057.078 1600.078, 1067.078 1600.081, 1077.078 1600.083, 1087.078 1600.085, 1097.078 1600.088, 1107.078 1600.090, 1117.078 1600.092, 1127.078 1600.094, 1137.078 1600.097, 1147.078 1600.099, 1157.078 1600.101, 1167.078 1600.104, 1177.078 1600.106, 1187.078 1600.108, 1197.078 1600.110, 1207.078 1600.113, 1217.078 1600.115, 1227.078 1600.117, 1237.078 1600.119, 1247.078 1600.122, 1257.078 1600.124, 1267.078 1600.126, 1277.078 1600.128, 1287.078 1600.131, 1297.078 1600.133, 1307.078 1600.135, 1317.078 1600.137, 1327.078 1600.140, 1337.078 1600.142, 1347.078 1600.144, 1357.078 1600.147, 1367.710 1590.189, 1366.792 1580.231, 1365.873 1570.274, 1364.954 1560.316, 1364.035 1550.358, 1363.117 1541.246, 1362.276 1541.243, 1352.276 1541.240, 1342.276 1541.237, 1332.276 1541.235, 1322.276 1541.232, 1312.276 1541.229, 1302.276 1541.227, 1292.276 1541.224, 1282.276 1541.221, 1272.276 1541.219, 1262.276 1541.216, 1252.276 1541.213, 1242.276 1541.210, 1232.276 1541.208, 1222.276 1541.205, 1212.276 1541.202, 1202.276 1541.199, 1192.276 1541.197, 1182.276 1541.194, 1172.276 1541.191, 1162.276 1541.189, 1152.276 1541.186, 1142.276 1541.183, 1132.276 1541.181, 1122.276 1541.178, 1112.276 1541.175, 1102.276 1541.172, 1092.276 1541.170, 1082.276 1541.167, 1072.276 1541.164, 1062.276 1541.161, 1052.276 1541.159, 1042.276 1541.156, 1032.276 1541.153, 1022.276 1541.151, 1012.276 1541.148, 1002.276 1541.145, 992.276 1541.143, 982.276 1541.140, 972.276 1541.137, 962.276 1541.134, 952.276 1541.132, 942.276 1541.129, 932.276 1541.126, 922.276 1541.124, 912.276 1541.121, 902.276 1541.118, 892.276 1541.115, 882.276 1541.113, 872.276 1541.110, 862.276 1541.107, 852.276 1541.104, 841.369 1531.131, 842.095 1521.157, 842.822 1511.184, 843.548 1501.210, 844.274 1491.236, 845.000 1481.263, 845.726 1471.289, 846.453 1461.316, 847.179 1451.342, 847.905 1441.368, 848.631 1431.395, 849.358 1421.421, 850.084 1411.448, 850.810 1407.701, 851.083 "
         id="path939"
         style="fill:#2aecfb;fill-opacity:1;stroke-width:3.77952756;stroke-miterlimit:4;stroke-dasharray:none;stroke-linejoin:round;stroke-linecap:butt;stroke:#000000;stroke-opacity:1;filter:url(#filter2008)" />
      <path
         fill="none"
         stroke-width="3.0"
         stroke-linecap="butt"
         stroke-opacity="1.0"
         stroke="rgb(0, 0, 0)"
         stroke-linejoin="miter"
         d=" M 586.186, 910.903 586.176, 900.903 586.166, 890.903 586.156, 880.903 586.146, 870.903 586.137, 860.903 586.133, 857.066 596.086, 856.098 606.039, 855.129 615.992, 854.161 625.945, 853.193 635.898, 852.224 645.851, 851.256 655.804, 850.288 665.757, 849.320 675.710, 848.351 685.663, 847.383 695.616, 846.415 705.569, 845.446 715.522, 844.478 725.475, 843.510 735.428, 842.542 745.381, 841.573 755.334, 840.605 762.890, 839.870 762.899, 849.870 762.908, 859.870 762.916, 869.870 762.925, 879.870 762.933, 889.870 762.940, 898.032 752.967, 898.759 742.993, 899.485 733.020, 900.211 723.046, 900.938 713.072, 901.664 703.099, 902.390 693.125, 903.116 686.424, 903.604 686.433, 913.604 686.443, 923.604 686.452, 933.604 686.461, 943.604 686.470, 953.604 686.479, 963.604 686.489, 973.604 686.498, 983.604 686.507, 993.604 686.516, 1003.604 686.525, 1013.604 686.534, 1023.604 686.544, 1033.604 686.553, 1043.604 686.562, 1053.604 686.571, 1063.604 686.580, 1073.604 686.589, 1083.604 686.599, 1093.604 686.608, 1103.604 686.617, 1113.604 686.626, 1123.604 686.635, 1133.604 686.644, 1143.604 686.654, 1153.604 686.663, 1163.604 686.672, 1173.604 686.681, 1183.604 686.690, 1193.604 686.700, 1203.604 686.709, 1213.604 686.718, 1223.604 686.727, 1233.604 686.736, 1243.604 686.745, 1253.604 686.755, 1263.604 686.764, 1273.604 686.773, 1283.438 676.815, 1282.519 666.857, 1281.601 656.900, 1280.682 656.431, 1280.639 656.422, 1270.639 656.413, 1260.639 656.403, 1250.639 656.394, 1240.639 656.384, 1230.639 656.375, 1220.639 656.366, 1210.639 656.356, 1200.639 656.347, 1190.639 656.337, 1180.639 656.328, 1170.639 656.319, 1160.639 656.309, 1150.639 656.300, 1140.639 656.290, 1130.639 656.281, 1120.639 656.271, 1110.639 656.262, 1100.639 656.253, 1090.639 656.243, 1080.639 656.234, 1070.639 656.224, 1060.639 656.215, 1050.639 656.206, 1040.639 656.196, 1030.639 656.187, 1020.639 656.177, 1010.639 656.168, 1000.639 656.159, 990.639 656.149, 980.639 656.140, 970.639 656.130, 960.639 656.121, 950.639 656.112, 940.639 656.102, 930.639 656.093, 920.639 656.083, 910.639 656.079, 905.814 646.105, 906.540 636.132, 907.266 626.158, 907.993 616.184, 908.719 606.211, 909.445 596.237, 910.171 586.186, 910.903 "
         id="path941"
         style="stroke:#000000;stroke-opacity:1;fill:#2aecfb;fill-opacity:1;stroke-width:3.77952756;stroke-miterlimit:4;stroke-dasharray:none;stroke-linejoin:round;stroke-linecap:butt;filter:url(#filter2004)" />
      <path
         style="fill:none;stroke:#000000;stroke-width:3.77952756;stroke-linecap:butt;stroke-linejoin:round;stroke-opacity:1;stroke-miterlimit:4;stroke-dasharray:none;filter:url(#filter2000)"
         d="m 3399.303,25.162 -2944.11,614.224 0.927,848.809 2940.854,592.411 2.329,-2055.444"
         id="path1390" />
      <path
         style="fill:none;stroke:#000000;stroke-width:3.77952756;stroke-linecap:butt;stroke-linejoin:round;stroke-opacity:1;stroke-miterlimit:4;stroke-dasharray:none;filter:url(#filter1996)"
         d="m 3396.974,2080.606 67.413,-37.396 2.344,-1979.234 -67.428,-38.814 z"
         id="path1392" />
      <path
         style="fill:none;stroke:#000000;stroke-width:3.77952756;stroke-linecap:butt;stroke-linejoin:round;stroke-opacity:1;stroke-miterlimit:4;stroke-dasharray:none;filter:url(#filter1992)"
         d="m 3142.651,1731.51 1.274,-1354.573 -2641.762,385.42 0.637,602.677 z"
         id="path1394" />
      <path
         style="fill:none;stroke:#000000;stroke-width:3.77952756;stroke-linecap:butt;stroke-linejoin:round;stroke-opacity:1;stroke-miterlimit:4;stroke-dasharray:none;filter:url(#filter1988)"
         d="M 3142.682,1698.605 3143.893,411.568 577.611,767.3 l 0.593,593.034 z"
         id="path1396" />
      <path
         style="fill:none;stroke:#000000;stroke-width:3.77952756;stroke-linecap:butt;stroke-linejoin:round;stroke-opacity:1;stroke-miterlimit:4;stroke-dasharray:none;filter:url(#filter1984)"
         d="m 502.8,1365.034 75.404,-4.7 -0.593,-593.034 -75.448,-4.943 z"
         id="path1398" />
    </g>
    <g
       inkscape:groupmode="layer"
       id="layer2"
       inkscape:label="strokes 1"
       style="display:inline">
      <path
         fill="none"
         stroke-width="3"
         stroke-linecap="butt"
         stroke-opacity="1"
         stroke="#000000"
         stroke-linejoin="miter"
         d="m 1175.144,897.156 -3.842,-6.883 -4.69,-5.985 -5.581,-4.983 -6.511,-3.88 -7.479,-2.678 -8.481,-1.381 -9.513,0.008 -9.973,0.726 -9.974,0.726 -9.973,0.726 -9.653,0.703 0.01,10 0.01,10 0.01,10 0.01,10 0.01,10 0.01,10 0.01,10 0.01,10 0.01,10 0.01,10 0.01,10 0.01,10 0.01,10 0.01,10 0.01,10 v 3.331 l 9.999,-0.161 9.999,-0.161 8.465,-0.137 9.974,-0.714 0.334,-0.024 9.456,-1.878 8.588,-3.032 7.709,-4.195 6.819,-5.366 5.92,-6.545 5.015,-7.726 4.105,-8.91 3.014,-9.535 0.177,-0.557 1.979,-9.802 0.296,-1.47 1.087,-9.941 0.274,-2.505 0.328,-9.994 0.119,-3.618 -0.294,-9.771 -0.905,-9.41 -1.568,-8.94 -2.278,-8.362 -3.036,-7.676"
         id="path931"
         style="fill:#003600;fill-opacity:1;stroke-width:3.77952756;stroke-linecap:round;stroke-linejoin:round;stroke-miterlimit:4;stroke-dasharray:none;opacity:1;filter:url(#filter2108)" />
      <path
         fill="none"
         stroke-width="3"
         stroke-linecap="butt"
         stroke-opacity="1"
         stroke="#000000"
         stroke-linejoin="miter"
         d="m 1141.725,1094.153 -10,-0.084 -10,-0.083 -9.999,-0.084 -10,-0.083 -10,-0.084 -2.117,-0.018 0.01,10 0.01,10 0.01,10 0.01,10 0.01,10 0.01,10 0.01,10 0.01,10 0.01,10 0.01,10 0.01,10 0.01,10 0.01,10 0.01,10 0.01,10 0.01,10.793 9.977,0.676 9.977,0.677 9.977,0.677 9.977,0.676 9.977,0.677 4.478,0.304 10,-0.046 2.241,-0.01 9.861,-1.662 0.967,-0.163 9.466,-3.437 8.16,-4.884 6.918,-6.161 5.743,-7.263 4.639,-8.187 3.611,-8.93 2.663,-9.49 1.795,-9.866 1.002,-9.949 v 0 l 0.2168,-9.41 -0.2958,-10.758 -0.076,-1.889 -1.268,-9.919 -0.17,-1.327 -2.225,-9.749 -0.178,-0.78 -3.275,-9.449 -0.099,-0.285 -4.35,-8.861 -5.328,-7.913 -6.307,-6.89 -7.283,-5.799 -8.254,-4.638 -9.22,-3.414 -9.789,-2.048 -0.388,-0.081 -9.975,-0.705 -1.148,-0.081"
         id="path933"
         style="opacity:1;fill:#003600;fill-opacity:1;stroke-width:3.77953;stroke-linecap:round;stroke-linejoin:round;stroke-miterlimit:4;stroke-dasharray:none;paint-order:markers fill stroke;filter:url(#filter2104)"
         sodipodi:nodetypes="cccccccccccccccccccccccccccccccccccccccccccccccccccccccccccccc" />
      <path
         fill="none"
         stroke-width="3"
         stroke-linecap="butt"
         stroke-opacity="1"
         stroke="#000000"
         stroke-linejoin="miter"
         d="m 883.714,929.519 -2.116,9.774 -2.116,9.773 -2.116,9.774 -2.116,9.774 -2.116,9.773 -2.116,9.774 -2.116,9.773 -2.115,9.774 -2.116,9.774 -2.116,9.773 -2.116,9.774 -2.116,9.773 -2.116,9.774 -2.116,9.773 -2.116,9.774 -2.116,9.774 -2.115,9.773 -1.063,4.909 9.999,0.12 9.999,0.12 10,0.119 9.999,0.12 9.999,0.12 9.999,0.119 10,0.12 8.528,0.102 -2.345,-9.721 -2.345,-9.721 -2.345,-9.722 -2.345,-9.721 -2.345,-9.721 -2.345,-9.721 -2.345,-9.721 -2.345,-9.721 -2.345,-9.721 -2.345,-9.722 -2.345,-9.721 -2.345,-9.721 -2.345,-9.721 -2.345,-9.721 -2.345,-9.721 -2.344,-9.722 -2.345,-9.721 -1.626,-6.74"
         id="path937"
         style="opacity:1;fill:#003600;fill-opacity:1;stroke-width:3.77952756;stroke-linecap:round;stroke-linejoin:round;stroke-miterlimit:4;stroke-dasharray:none;filter:url(#filter2100)" />
      <path
         fill="none"
         stroke-width="3"
         stroke-linecap="butt"
         stroke-opacity="1"
         stroke="#000000"
         stroke-linejoin="miter"
         d="m 2667.051,828.419 -3.468,9.38 -3.467,9.38 -3.467,9.379 -3.467,9.38 -3.467,9.38 -3.467,9.38 -3.467,9.379 -3.468,9.38 -3.467,9.38 -3.467,9.379 -3.467,9.38 -3.467,9.38 -3.467,9.379 -3.468,9.38 -3.467,9.38 -3.467,9.38 -3.467,9.379 -3.467,9.38 -3.467,9.38 -3.467,9.379 -3.468,9.38 -3.467,9.38 -3.467,9.38 -3.467,9.379 -3.467,9.38 -3.467,9.38 -3.467,9.38 -3.467,9.379 -3.468,9.38 -3.467,9.38 -4.16,11.256 9.999,0.119 9.999,0.12 10,0.119 9.999,0.12 9.999,0.12 9.999,0.119 10,0.12 9.999,0.12 9.999,0.119 9.999,0.12 10,0.12 9.999,0.119 9.999,0.12 10,0.12 9.999,0.119 9.999,0.12 10,0.119 9.999,0.12 9.999,0.12 9.999,0.119 10,0.12 9.999,0.12 10.941,0.131 -3.837,-9.235 -3.838,-9.234 -3.837,-9.235 -3.837,-9.234 -3.837,-9.235 -3.837,-9.234 -3.837,-9.235 -3.837,-9.234 -3.838,-9.235 -3.837,-9.235 -3.837,-9.234 -3.837,-9.234 -3.838,-9.235 -3.837,-9.234 -3.837,-9.235 -3.837,-9.234 -3.837,-9.235 -3.837,-9.234 -3.837,-9.235 -3.838,-9.235 -3.837,-9.234 -3.837,-9.235 -3.837,-9.234 -3.837,-9.235 -3.837,-9.234 -3.838,-9.235 -3.837,-9.234 -3.837,-9.235 -3.837,-9.234 -3.837,-9.235 -3.837,-9.234 -3.798,-9.141"
         id="path923"
         style="fill:#003600;fill-opacity:1;stroke-width:3.77952756;stroke-linecap:round;stroke-linejoin:round;stroke-miterlimit:4;stroke-dasharray:none;opacity:1;filter:url(#filter2096)" />
    </g>
  </g>
</svg>
